ISO-10303-21;
HEADER;
FILE_DESCRIPTION (( 'STEP AP214' ),
    '1' );
FILE_NAME ('2822HC100-RTR.STEP',
    '2026-03-19T08:19:39',
    ( 'LENOVO' ),
    ( '' ),
    'SwSTEP 2.0',
    'SolidWorks 2021',
    '' );
FILE_SCHEMA (( 'AUTOMOTIVE_DESIGN' ));
ENDSEC;

DATA;
#1 = STYLED_ITEM ( 'NONE', ( #436 ), #193 ) ;
#2 = LINE ( 'NONE', #466, #3 ) ;
#3 = VECTOR ( 'NONE', #90, 1000.000000000000000 ) ;
#4 = EDGE_LOOP ( 'NONE', ( #64, #512, #287, #355 ) ) ;
#5 = PLANE ( 'NONE',  #459 ) ;
#6 = VECTOR ( 'NONE', #285, 1000.000000000000000 ) ;
#7 = ORIENTED_EDGE ( 'NONE', *, *, #761, .F. ) ;
#8 = CARTESIAN_POINT ( 'NONE',  ( 2.849999999999999201, 0.3999999999999991340, 2.500000000000000000 ) ) ;
#9 = ORIENTED_EDGE ( 'NONE', *, *, #14, .F. ) ;
#10 = CARTESIAN_POINT ( 'NONE',  ( -3.450000000000001954, 0.3999999999999990785, 3.000000000000000000 ) ) ;
#11 = LINE ( 'NONE', #810, #570 ) ;
#12 = CARTESIAN_POINT ( 'NONE',  ( -3.450000000000001066, 0.3999999999999989675, 2.500000000000000000 ) ) ;
#13 = FACE_OUTER_BOUND ( 'NONE', #811, .T. ) ;
#14 = EDGE_CURVE ( 'NONE', #146, #339, #754, .T. ) ;
#15 = VERTEX_POINT ( 'NONE', #343 ) ;
#16 = VECTOR ( 'NONE', #103, 1000.000000000000000 ) ;
#17 = DIRECTION ( 'NONE',  ( -3.614007241618345813E-16, -1.000000000000000000, 0.000000000000000000 ) ) ;
#18 = DIRECTION ( 'NONE',  ( -1.000000000000000000, -0.000000000000000000, -0.000000000000000000 ) ) ;
#19 = CIRCLE ( 'NONE', #61, 0.3999999999999993006 ) ;
#20 =( LENGTH_UNIT ( ) NAMED_UNIT ( * ) SI_UNIT ( .MILLI., .METRE. ) );
#21 = LINE ( 'NONE', #659, #560 ) ;
#22 = LINE ( 'NONE', #416, #27 ) ;
#23 = DIRECTION ( 'NONE',  ( -0.000000000000000000, -0.000000000000000000, -1.000000000000000000 ) ) ;
#24 = STYLED_ITEM ( 'NONE', ( #796 ), #342 ) ;
#25 = CARTESIAN_POINT ( 'NONE',  ( -3.450000000000001954, 0.3999999999999990785, 3.000000000000000000 ) ) ;
#26 = STYLED_ITEM ( 'NONE', ( #482 ), #302 ) ;
#27 = VECTOR ( 'NONE', #270, 1000.000000000000000 ) ;
#28 = EDGE_CURVE ( 'NONE', #554, #156, #476, .T. ) ;
#29 = VECTOR ( 'NONE', #626, 1000.000000000000000 ) ;
#30 = CARTESIAN_POINT ( 'NONE',  ( 3.449999999999999289, 4.599999999999999645, -3.000000000000000000 ) ) ;
#31 = VECTOR ( 'NONE', #52, 1000.000000000000000 ) ;
#32 = VERTEX_POINT ( 'NONE', #684 ) ;
#33 = VERTEX_POINT ( 'NONE', #317 ) ;
#34 = DIRECTION ( 'NONE',  ( 0.000000000000000000, -0.000000000000000000, -1.000000000000000000 ) ) ;
#35 = VERTEX_POINT ( 'NONE', #692 ) ;
#36 = DIRECTION ( 'NONE',  ( -0.000000000000000000, -0.000000000000000000, -1.000000000000000000 ) ) ;
#37 = ORIENTED_EDGE ( 'NONE', *, *, #127, .F. ) ;
#38 = APPLICATION_PROTOCOL_DEFINITION ( 'draft international standard', 'automotive_design', 1998, #42 ) ;
#39 =( NAMED_UNIT ( * ) SI_UNIT ( $, .STERADIAN. ) SOLID_ANGLE_UNIT ( ) );
#40 = ORIENTED_EDGE ( 'NONE', *, *, #401, .T. ) ;
#41 = ORIENTED_EDGE ( 'NONE', *, *, #349, .T. ) ;
#42 = APPLICATION_CONTEXT ( 'automotive_design' ) ;
#43 = VERTEX_POINT ( 'NONE', #249 ) ;
#44 =( GEOMETRIC_REPRESENTATION_CONTEXT ( 3 ) GLOBAL_UNCERTAINTY_ASSIGNED_CONTEXT ( ( #471 ) ) GLOBAL_UNIT_ASSIGNED_CONTEXT ( ( #760, #415, #404 ) ) REPRESENTATION_CONTEXT ( 'NONE', 'WORKASPACE' ) );
#45 =( NAMED_UNIT ( * ) PLANE_ANGLE_UNIT ( ) SI_UNIT ( $, .RADIAN. ) );
#46 = EDGE_LOOP ( 'NONE', ( #691, #425, #255, #280 ) ) ;
#47 = DIRECTION ( 'NONE',  ( 0.000000000000000000, -0.000000000000000000, -1.000000000000000000 ) ) ;
#48 = CARTESIAN_POINT ( 'NONE',  ( 3.450000000000001510, 1.599999999999999867, 2.500000000000000000 ) ) ;
#49 = UNCERTAINTY_MEASURE_WITH_UNIT (LENGTH_MEASURE( 1.000000000000000082E-05 ), #825, 'distance_accuracy_value', 'NONE');
#50 = DIRECTION ( 'NONE',  ( 1.000000000000000000, 0.000000000000000000, 0.000000000000000000 ) ) ;
#51 = EDGE_LOOP ( 'NONE', ( #164, #55, #57, #631 ) ) ;
#52 = DIRECTION ( 'NONE',  ( 1.000000000000000000, 1.840757888321918805E-16, 0.000000000000000000 ) ) ;
#53 = VERTEX_POINT ( 'NONE', #188 ) ;
#54 = CARTESIAN_POINT ( 'NONE',  ( -3.450000000000001954, 0.3999999999999990785, -3.000000000000000000 ) ) ;
#55 = ORIENTED_EDGE ( 'NONE', *, *, #685, .F. ) ;
#56 = PRESENTATION_STYLE_ASSIGNMENT (( #795 ) ) ;
#57 = ORIENTED_EDGE ( 'NONE', *, *, #190, .F. ) ;
#58 = FILL_AREA_STYLE_COLOUR ( '', #205 ) ;
#59 = EDGE_LOOP ( 'NONE', ( #669, #335, #405, #40, #120, #41, #587 ) ) ;
#60 = ADVANCED_FACE ( 'NONE', ( #756 ), #704, .F. ) ;
#61 = AXIS2_PLACEMENT_3D ( 'NONE', #172, #237, #312 ) ;
#62 = CARTESIAN_POINT ( 'NONE',  ( 3.850000000000000089, 0.3999999999999989675, -2.500000000000000000 ) ) ;
#63 = DIRECTION ( 'NONE',  ( -0.000000000000000000, -1.000000000000000000, -0.000000000000000000 ) ) ;
#64 = ORIENTED_EDGE ( 'NONE', *, *, #76, .T. ) ;
#65 = DIRECTION ( 'NONE',  ( -1.000000000000000000, 0.000000000000000000, 0.000000000000000000 ) ) ;
#66 =( NAMED_UNIT ( * ) SI_UNIT ( $, .STERADIAN. ) SOLID_ANGLE_UNIT ( ) );
#67 = AXIS2_PLACEMENT_3D ( 'NONE', #602, #797, #224 ) ;
#68 = EDGE_CURVE ( 'NONE', #231, #503, #142, .T. ) ;
#69 = DIRECTION ( 'NONE',  ( -0.000000000000000000, -0.000000000000000000, -1.000000000000000000 ) ) ;
#70 = AXIS2_PLACEMENT_3D ( 'NONE', #826, #69, #122 ) ;
#71 =( NAMED_UNIT ( * ) SI_UNIT ( $, .STERADIAN. ) SOLID_ANGLE_UNIT ( ) );
#72 = ADVANCED_FACE ( 'NONE', ( #177 ), #638, .T. ) ;
#73 = CARTESIAN_POINT ( 'NONE',  ( 3.850000000000000089, 1.599999999999999867, 2.500000000000000000 ) ) ;
#74 = CARTESIAN_POINT ( 'NONE',  ( -3.850000000000000089, 0.3999999999999989675, 2.500000000000000000 ) ) ;
#75 = ORIENTED_EDGE ( 'NONE', *, *, #85, .T. ) ;
#76 = EDGE_CURVE ( 'NONE', #32, #714, #170, .T. ) ;
#77 = CARTESIAN_POINT ( 'NONE',  ( 3.450000000000001954, 0.3999999999999990785, 2.500000000000000000 ) ) ;
#78 = DIRECTION ( 'NONE',  ( 0.000000000000000000, 0.000000000000000000, 1.000000000000000000 ) ) ;
#79 =( GEOMETRIC_REPRESENTATION_CONTEXT ( 3 ) GLOBAL_UNCERTAINTY_ASSIGNED_CONTEXT ( ( #375 ) ) GLOBAL_UNIT_ASSIGNED_CONTEXT ( ( #733, #228, #494 ) ) REPRESENTATION_CONTEXT ( 'NONE', 'WORKASPACE' ) );
#80 = ORIENTED_EDGE ( 'NONE', *, *, #603, .F. ) ;
#81 = DIRECTION ( 'NONE',  ( 1.000000000000000000, 0.000000000000000000, 0.000000000000000000 ) ) ;
#82 = CLOSED_SHELL ( 'NONE', ( #430, #500, #642, #397, #123, #236, #736, #675, #514 ) ) ;
#83 = SURFACE_STYLE_USAGE ( .BOTH. , #645 ) ;
#84 = CARTESIAN_POINT ( 'NONE',  ( 3.449999999999998845, 0.3999999999999999112, -3.000000000000000000 ) ) ;
#85 = EDGE_CURVE ( 'NONE', #373, #33, #426, .T. ) ;
#86 = DIRECTION ( 'NONE',  ( 0.000000000000000000, 0.000000000000000000, -1.000000000000000000 ) ) ;
#87 = PLANE ( 'NONE',  #419 ) ;
#88 = ORIENTED_EDGE ( 'NONE', *, *, #519, .F. ) ;
#89 = AXIS2_PLACEMENT_3D ( 'NONE', #336, #450, #377 ) ;
#90 = DIRECTION ( 'NONE',  ( -1.000000000000000000, -0.000000000000000000, -0.000000000000000000 ) ) ;
#91 = ORIENTED_EDGE ( 'NONE', *, *, #637, .F. ) ;
#92 = MANIFOLD_SOLID_BREP ( 'Boss-Extrude2', #616 ) ;
#93 = UNCERTAINTY_MEASURE_WITH_UNIT (LENGTH_MEASURE( 1.000000000000000082E-05 ), #740, 'distance_accuracy_value', 'NONE');
#94 = ADVANCED_BREP_SHAPE_REPRESENTATION ( '2822HC100-RTR', ( #487, #92, #302, #352 ), #79 ) ;
#95 = EDGE_CURVE ( 'NONE', #101, #341, #721, .T. ) ;
#96 = ORIENTED_EDGE ( 'NONE', *, *, #581, .T. ) ;
#97 = ORIENTED_EDGE ( 'NONE', *, *, #637, .T. ) ;
#98 = APPLICATION_PROTOCOL_DEFINITION ( 'draft international standard', 'automotive_design', 1998, #683 ) ;
#99 =( GEOMETRIC_REPRESENTATION_CONTEXT ( 3 ) GLOBAL_UNCERTAINTY_ASSIGNED_CONTEXT ( ( #319 ) ) GLOBAL_UNIT_ASSIGNED_CONTEXT ( ( #424, #815, #66 ) ) REPRESENTATION_CONTEXT ( 'NONE', 'WORKASPACE' ) );
#100 = ORIENTED_EDGE ( 'NONE', *, *, #210, .T. ) ;
#101 = VERTEX_POINT ( 'NONE', #585 ) ;
#102 = DIRECTION ( 'NONE',  ( -1.000000000000000000, 0.000000000000000000, 0.000000000000000000 ) ) ;
#103 = DIRECTION ( 'NONE',  ( 0.000000000000000000, -0.000000000000000000, -1.000000000000000000 ) ) ;
#104 = FILL_AREA_STYLE ('',( #495 ) ) ;
#105 = CARTESIAN_POINT ( 'NONE',  ( -3.450000000000000622, 0.000000000000000000, 2.500000000000000000 ) ) ;
#106 = MECHANICAL_DESIGN_GEOMETRIC_PRESENTATION_REPRESENTATION (  '', ( #601 ), #695 ) ;
#107 = CARTESIAN_POINT ( 'NONE',  ( 2.849999999999999201, -5.421010862427522170E-17, 2.500000000000000000 ) ) ;
#108 = EDGE_LOOP ( 'NONE', ( #269, #440, #141, #155 ) ) ;
#109 =( NAMED_UNIT ( * ) PLANE_ANGLE_UNIT ( ) SI_UNIT ( $, .RADIAN. ) );
#110 = EDGE_LOOP ( 'NONE', ( #689, #253, #134, #708 ) ) ;
#111 = CARTESIAN_POINT ( 'NONE',  ( -3.450000000000001510, 1.599999999999999867, 2.500000000000000000 ) ) ;
#112 = EDGE_LOOP ( 'NONE', ( #634, #671, #96, #217 ) ) ;
#113 = DIRECTION ( 'NONE',  ( -1.000000000000000000, 0.000000000000000000, 0.000000000000000000 ) ) ;
#114 = FILL_AREA_STYLE_COLOUR ( '', #350 ) ;
#115 = DIRECTION ( 'NONE',  ( 0.000000000000000000, -1.000000000000000000, -0.000000000000000000 ) ) ;
#116 = PLANE ( 'NONE',  #371 ) ;
#117 = CARTESIAN_POINT ( 'NONE',  ( 3.450000000000000622, 0.000000000000000000, 2.500000000000000000 ) ) ;
#118 = VERTEX_POINT ( 'NONE', #179 ) ;
#119 = PRODUCT_DEFINITION_FORMATION_WITH_SPECIFIED_SOURCE ( 'ANY', '', #225, .NOT_KNOWN. ) ;
#120 = ORIENTED_EDGE ( 'NONE', *, *, #222, .T. ) ;
#121 = AXIS2_PLACEMENT_3D ( 'NONE', #501, #439, #575 ) ;
#122 = DIRECTION ( 'NONE',  ( -1.000000000000000000, 0.000000000000000000, 0.000000000000000000 ) ) ;
#123 = ADVANCED_FACE ( 'NONE', ( #162 ), #160, .T. ) ;
#124 = CARTESIAN_POINT ( 'NONE',  ( -2.449999999999999734, 0.3999999999999990785, 2.500000000000000000 ) ) ;
#125 = EDGE_CURVE ( 'NONE', #241, #32, #451, .T. ) ;
#126 = DIRECTION ( 'NONE',  ( 0.000000000000000000, -0.000000000000000000, -1.000000000000000000 ) ) ;
#127 = EDGE_CURVE ( 'NONE', #341, #784, #428, .T. ) ;
#128 = DIRECTION ( 'NONE',  ( 0.000000000000000000, 0.000000000000000000, 1.000000000000000000 ) ) ;
#129 = DIRECTION ( 'NONE',  ( -0.000000000000000000, -1.000000000000000000, -0.000000000000000000 ) ) ;
#130 = SURFACE_STYLE_USAGE ( .BOTH. , #709 ) ;
#131 = CARTESIAN_POINT ( 'NONE',  ( 2.449999999999999734, 0.3999999999999991340, -2.500000000000000000 ) ) ;
#132 = EDGE_LOOP ( 'NONE', ( #661, #334, #676, #739 ) ) ;
#133 = AXIS2_PLACEMENT_3D ( 'NONE', #256, #502, #126 ) ;
#134 = ORIENTED_EDGE ( 'NONE', *, *, #303, .F. ) ;
#135 = DIRECTION ( 'NONE',  ( 0.000000000000000000, -0.000000000000000000, -1.000000000000000000 ) ) ;
#136 = EDGE_CURVE ( 'NONE', #535, #231, #173, .T. ) ;
#137 = STYLED_ITEM ( 'NONE', ( #56 ), #94 ) ;
#138 = ORIENTED_EDGE ( 'NONE', *, *, #509, .F. ) ;
#139 = CARTESIAN_POINT ( 'NONE',  ( -3.450000000000001510, 1.599999999999999867, 2.500000000000000000 ) ) ;
#140 = CARTESIAN_POINT ( 'NONE',  ( 2.449999999999999734, 0.3999999999999990785, 2.500000000000000000 ) ) ;
#141 = ORIENTED_EDGE ( 'NONE', *, *, #434, .F. ) ;
#142 = LINE ( 'NONE', #498, #158 ) ;
#143 = PLANE ( 'NONE',  #446 ) ;
#144 = MECHANICAL_DESIGN_GEOMETRIC_PRESENTATION_REPRESENTATION (  '', ( #356 ), #644 ) ;
#145 = DIRECTION ( 'NONE',  ( 1.000000000000000000, 3.614007241618345813E-16, 0.000000000000000000 ) ) ;
#146 = VERTEX_POINT ( 'NONE', #407 ) ;
#147 = MECHANICAL_DESIGN_GEOMETRIC_PRESENTATION_REPRESENTATION (  '', ( #1 ), #314 ) ;
#148 = FACE_OUTER_BOUND ( 'NONE', #51, .T. ) ;
#149 = ORIENTED_EDGE ( 'NONE', *, *, #434, .T. ) ;
#150 = SURFACE_STYLE_USAGE ( .BOTH. , #653 ) ;
#151 = SURFACE_STYLE_FILL_AREA ( #713 ) ;
#152 = AXIS2_PLACEMENT_3D ( 'NONE', #678, #435, #102 ) ;
#153 = LINE ( 'NONE', #467, #454 ) ;
#154 = DIRECTION ( 'NONE',  ( -0.000000000000000000, -0.000000000000000000, -1.000000000000000000 ) ) ;
#155 = ORIENTED_EDGE ( 'NONE', *, *, #475, .T. ) ;
#156 = VERTEX_POINT ( 'NONE', #520 ) ;
#157 = CARTESIAN_POINT ( 'NONE',  ( -3.450000000000001954, 0.3999999999999990785, -2.500000000000000000 ) ) ;
#158 = VECTOR ( 'NONE', #812, 1000.000000000000000 ) ;
#159 = COLOUR_RGB ( '',1.000000000000000000, 1.000000000000000000, 1.000000000000000000 ) ;
#160 = CYLINDRICAL_SURFACE ( 'NONE', #301, 0.3999999999999993006 ) ;
#161 = CARTESIAN_POINT ( 'NONE',  ( -3.450000000000001954, 0.3999999999999990785, 3.000000000000000000 ) ) ;
#162 = FACE_OUTER_BOUND ( 'NONE', #693, .T. ) ;
#163 = AXIS2_PLACEMENT_3D ( 'NONE', #513, #588, #647 ) ;
#164 = ORIENTED_EDGE ( 'NONE', *, *, #125, .T. ) ;
#165 = VECTOR ( 'NONE', #23, 1000.000000000000000 ) ;
#166 = VERTEX_POINT ( 'NONE', #273 ) ;
#167 = VECTOR ( 'NONE', #328, 1000.000000000000000 ) ;
#168 = MECHANICAL_DESIGN_GEOMETRIC_PRESENTATION_REPRESENTATION (  '', ( #24 ), #331 ) ;
#169 = PLANE ( 'NONE',  #747 ) ;
#170 = LINE ( 'NONE', #54, #433 ) ;
#171 =( GEOMETRIC_REPRESENTATION_CONTEXT ( 3 ) GLOBAL_UNCERTAINTY_ASSIGNED_CONTEXT ( ( #49 ) ) GLOBAL_UNIT_ASSIGNED_CONTEXT ( ( #825, #109, #71 ) ) REPRESENTATION_CONTEXT ( 'NONE', 'WORKASPACE' ) );
#172 = CARTESIAN_POINT ( 'NONE',  ( 2.849999999999999201, 0.3999999999999991340, 2.500000000000000000 ) ) ;
#173 = LINE ( 'NONE', #157, #702 ) ;
#174 = EDGE_CURVE ( 'NONE', #53, #261, #700, .T. ) ;
#175 = CARTESIAN_POINT ( 'NONE',  ( -2.849999999999999201, -5.421010862427522170E-17, 2.500000000000000000 ) ) ;
#176 = SURFACE_SIDE_STYLE ('',( #711 ) ) ;
#177 = FACE_OUTER_BOUND ( 'NONE', #325, .T. ) ;
#178 = PLANE ( 'NONE',  #226 ) ;
#179 = CARTESIAN_POINT ( 'NONE',  ( 3.850000000000000089, 0.3999999999999989675, 2.500000000000000000 ) ) ;
#180 = MECHANICAL_DESIGN_GEOMETRIC_PRESENTATION_REPRESENTATION (  '', ( #381 ), #652 ) ;
#181 = DIRECTION ( 'NONE',  ( -1.000000000000000000, -1.178480622266852463E-16, 0.000000000000000000 ) ) ;
#182 = EDGE_CURVE ( 'NONE', #33, #714, #449, .T. ) ;
#183 = EDGE_CURVE ( 'NONE', #503, #35, #444, .T. ) ;
#184 = PRESENTATION_STYLE_ASSIGNMENT (( #229 ) ) ;
#185 = MECHANICAL_DESIGN_GEOMETRIC_PRESENTATION_REPRESENTATION (  '', ( #137 ), #213 ) ;
#186 = FILL_AREA_STYLE ('',( #641 ) ) ;
#187 = DIRECTION ( 'NONE',  ( 0.000000000000000000, 0.000000000000000000, 1.000000000000000000 ) ) ;
#188 = CARTESIAN_POINT ( 'NONE',  ( 3.450000000000001954, 0.3999999999999990785, 2.500000000000000000 ) ) ;
#189 = AXIS2_PLACEMENT_3D ( 'NONE', #522, #78, #284 ) ;
#190 = EDGE_CURVE ( 'NONE', #235, #373, #153, .T. ) ;
#191 = FILL_AREA_STYLE_COLOUR ( '', #262 ) ;
#192 = AXIS2_PLACEMENT_3D ( 'NONE', #453, #34, #600 ) ;
#193 = ADVANCED_FACE ( 'NONE', ( #148 ), #786, .F. ) ;
#194 = CARTESIAN_POINT ( 'NONE',  ( -3.450000000000001954, 0.3999999999999990785, 2.500000000000000000 ) ) ;
#195 = DIRECTION ( 'NONE',  ( 0.000000000000000000, -1.000000000000000000, -0.000000000000000000 ) ) ;
#196 = ORIENTED_EDGE ( 'NONE', *, *, #780, .T. ) ;
#197 = DIRECTION ( 'NONE',  ( -1.000000000000000000, 0.000000000000000000, 0.000000000000000000 ) ) ;
#198 = EDGE_CURVE ( 'NONE', #390, #166, #457, .T. ) ;
#199 = DIRECTION ( 'NONE',  ( -0.000000000000000000, -0.000000000000000000, -1.000000000000000000 ) ) ;
#200 = CARTESIAN_POINT ( 'NONE',  ( -2.449999999999999734, 0.3999999999999991340, -2.500000000000000000 ) ) ;
#201 = DIRECTION ( 'NONE',  ( -1.000000000000000000, 0.000000000000000000, 0.000000000000000000 ) ) ;
#202 = DIRECTION ( 'NONE',  ( -1.000000000000000000, 0.000000000000000000, 0.000000000000000000 ) ) ;
#203 = SURFACE_STYLE_FILL_AREA ( #753 ) ;
#204 =( NAMED_UNIT ( * ) SI_UNIT ( $, .STERADIAN. ) SOLID_ANGLE_UNIT ( ) );
#205 = COLOUR_RGB ( '',0.7921568627450980005, 0.8196078431372548767, 0.9333333333333333481 ) ;
#206 = DIRECTION ( 'NONE',  ( 1.000000000000000000, 0.000000000000000000, 0.000000000000000000 ) ) ;
#207 = EDGE_CURVE ( 'NONE', #548, #745, #489, .T. ) ;
#208 = CARTESIAN_POINT ( 'NONE',  ( -3.450000000000001954, 0.3999999999999990785, 3.000000000000000000 ) ) ;
#209 = VECTOR ( 'NONE', #441, 1000.000000000000000 ) ;
#210 = EDGE_CURVE ( 'NONE', #53, #772, #468, .T. ) ;
#211 = LINE ( 'NONE', #161, #464 ) ;
#212 = CARTESIAN_POINT ( 'NONE',  ( 3.450000000000000622, -1.646555819235906064E-16, 2.500000000000000000 ) ) ;
#213 =( GEOMETRIC_REPRESENTATION_CONTEXT ( 3 ) GLOBAL_UNCERTAINTY_ASSIGNED_CONTEXT ( ( #785 ) ) GLOBAL_UNIT_ASSIGNED_CONTEXT ( ( #477, #315, #376 ) ) REPRESENTATION_CONTEXT ( 'NONE', 'WORKASPACE' ) );
#214 = DIRECTION ( 'NONE',  ( 3.614007241618345813E-16, -1.000000000000000000, 0.000000000000000000 ) ) ;
#215 = SURFACE_STYLE_FILL_AREA ( #420 ) ;
#216 = DIRECTION ( 'NONE',  ( 3.614007241618345813E-16, 1.000000000000000000, 0.000000000000000000 ) ) ;
#217 = ORIENTED_EDGE ( 'NONE', *, *, #432, .T. ) ;
#218 = VECTOR ( 'NONE', #628, 1000.000000000000000 ) ;
#219 = ORIENTED_EDGE ( 'NONE', *, *, #412, .T. ) ;
#220 = DIRECTION ( 'NONE',  ( 0.000000000000000000, -1.000000000000000000, -0.000000000000000000 ) ) ;
#221 = PRESENTATION_STYLE_ASSIGNMENT (( #83 ) ) ;
#222 = EDGE_CURVE ( 'NONE', #629, #745, #460, .T. ) ;
#223 = FACE_OUTER_BOUND ( 'NONE', #4, .T. ) ;
#224 = DIRECTION ( 'NONE',  ( 0.000000000000000000, -0.000000000000000000, -1.000000000000000000 ) ) ;
#225 = PRODUCT ( '2822HC100-RTR', '2822HC100-RTR', '', ( #383 ) ) ;
#226 = AXIS2_PLACEMENT_3D ( 'NONE', #124, #808, #630 ) ;
#227 = VECTOR ( 'NONE', #50, 1000.000000000000000 ) ;
#228 =( NAMED_UNIT ( * ) PLANE_ANGLE_UNIT ( ) SI_UNIT ( $, .RADIAN. ) );
#229 = SURFACE_STYLE_USAGE ( .BOTH. , #559 ) ;
#230 = ORIENTED_EDGE ( 'NONE', *, *, #422, .F. ) ;
#231 = VERTEX_POINT ( 'NONE', #727 ) ;
#232 = EDGE_LOOP ( 'NONE', ( #667, #751, #545, #385, #297, #305, #411 ) ) ;
#233 = EDGE_CURVE ( 'NONE', #118, #649, #750, .T. ) ;
#234 = DIRECTION ( 'NONE',  ( -2.065146995210484448E-16, -1.000000000000000000, 0.000000000000000000 ) ) ;
#235 = VERTEX_POINT ( 'NONE', #658 ) ;
#236 = ADVANCED_FACE ( 'NONE', ( #763 ), #463, .F. ) ;
#237 = DIRECTION ( 'NONE',  ( -0.000000000000000000, -0.000000000000000000, -1.000000000000000000 ) ) ;
#238 = EDGE_LOOP ( 'NONE', ( #351, #816, #362, #696 ) ) ;
#239 = SURFACE_STYLE_FILL_AREA ( #470 ) ;
#240 = CARTESIAN_POINT ( 'NONE',  ( -3.450000000000001066, 4.599999999999999645, -3.000000000000000000 ) ) ;
#241 = VERTEX_POINT ( 'NONE', #30 ) ;
#242 = MECHANICAL_DESIGN_GEOMETRIC_PRESENTATION_REPRESENTATION (  '', ( #410 ), #171 ) ;
#243 = CARTESIAN_POINT ( 'NONE',  ( 2.849999999999999201, -5.421010862427522170E-17, 2.500000000000000000 ) ) ;
#244 = EDGE_CURVE ( 'NONE', #235, #241, #486, .T. ) ;
#245 = FACE_OUTER_BOUND ( 'NONE', #409, .T. ) ;
#246 = FILL_AREA_STYLE_COLOUR ( '', #508 ) ;
#247 = EDGE_LOOP ( 'NONE', ( #366, #818, #7, #703 ) ) ;
#248 = VECTOR ( 'NONE', #65, 1000.000000000000000 ) ;
#249 = CARTESIAN_POINT ( 'NONE',  ( -3.450000000000000622, 0.000000000000000000, 2.500000000000000000 ) ) ;
#250 = EDGE_LOOP ( 'NONE', ( #97, #619, #138, #611 ) ) ;
#251 = VECTOR ( 'NONE', #771, 1000.000000000000000 ) ;
#252 = CARTESIAN_POINT ( 'NONE',  ( 0.000000000000000000, 0.000000000000000000, 3.000000000000000000 ) ) ;
#253 = ORIENTED_EDGE ( 'NONE', *, *, #198, .F. ) ;
#254 = CARTESIAN_POINT ( 'NONE',  ( 3.449999999999998845, 0.3999999999999999112, 3.000000000000000000 ) ) ;
#255 = ORIENTED_EDGE ( 'NONE', *, *, #412, .F. ) ;
#256 = CARTESIAN_POINT ( 'NONE',  ( -3.850000000000000089, 1.599999999999999867, 2.500000000000000000 ) ) ;
#257 = PRESENTATION_LAYER_ASSIGNMENT (  '', '', ( #137 ) ) ;
#258 = VECTOR ( 'NONE', #324, 1000.000000000000000 ) ;
#259 = ADVANCED_FACE ( 'NONE', ( #462 ), #116, .F. ) ;
#260 = LINE ( 'NONE', #243, #531 ) ;
#261 = VERTEX_POINT ( 'NONE', #445 ) ;
#262 = COLOUR_RGB ( '',0.7921568627450980005, 0.8196078431372548767, 0.9333333333333333481 ) ;
#263 = DIRECTION ( 'NONE',  ( 1.000000000000000000, 0.000000000000000000, -0.000000000000000000 ) ) ;
#264 = EDGE_LOOP ( 'NONE', ( #230, #399, #100, #196 ) ) ;
#265 = LINE ( 'NONE', #474, #804 ) ;
#266 = VECTOR ( 'NONE', #719, 1000.000000000000000 ) ;
#267 =( NAMED_UNIT ( * ) PLANE_ANGLE_UNIT ( ) SI_UNIT ( $, .RADIAN. ) );
#268 = EDGE_CURVE ( 'NONE', #43, #782, #731, .T. ) ;
#269 = ORIENTED_EDGE ( 'NONE', *, *, #646, .T. ) ;
#270 = DIRECTION ( 'NONE',  ( -0.000000000000000000, -0.000000000000000000, -1.000000000000000000 ) ) ;
#271 = ORIENTED_EDGE ( 'NONE', *, *, #491, .T. ) ;
#272 = AXIS2_PLACEMENT_3D ( 'NONE', #682, #187, #263 ) ;
#273 = CARTESIAN_POINT ( 'NONE',  ( 3.449999999999998845, 0.3999999999999999112, -3.000000000000000000 ) ) ;
#274 = FACE_OUTER_BOUND ( 'NONE', #132, .T. ) ;
#275 = DIRECTION ( 'NONE',  ( 0.000000000000000000, -0.000000000000000000, -1.000000000000000000 ) ) ;
#276 = SURFACE_STYLE_FILL_AREA ( #636 ) ;
#277 = CARTESIAN_POINT ( 'NONE',  ( 2.849999999999999201, -5.421010862427522170E-17, -2.500000000000000000 ) ) ;
#278 = ORIENTED_EDGE ( 'NONE', *, *, #635, .T. ) ;
#279 = LINE ( 'NONE', #117, #821 ) ;
#280 = ORIENTED_EDGE ( 'NONE', *, *, #807, .T. ) ;
#281 = DIRECTION ( 'NONE',  ( -0.000000000000000000, -0.000000000000000000, -1.000000000000000000 ) ) ;
#282 = LINE ( 'NONE', #340, #258 ) ;
#283 = VECTOR ( 'NONE', #275, 1000.000000000000000 ) ;
#284 = DIRECTION ( 'NONE',  ( 1.000000000000000000, 0.000000000000000000, 0.000000000000000000 ) ) ;
#285 = DIRECTION ( 'NONE',  ( 2.065146995210484695E-16, 1.000000000000000000, 0.000000000000000000 ) ) ;
#286 = DIRECTION ( 'NONE',  ( 1.840757888321918559E-16, 1.000000000000000000, 0.000000000000000000 ) ) ;
#287 = ORIENTED_EDGE ( 'NONE', *, *, #85, .F. ) ;
#288 = PRESENTATION_LAYER_ASSIGNMENT (  '', '', ( #410 ) ) ;
#289 = CARTESIAN_POINT ( 'NONE',  ( 3.450000000000001954, 0.3999999999999990785, 2.500000000000000000 ) ) ;
#290 = LINE ( 'NONE', #361, #292 ) ;
#291 = ORIENTED_EDGE ( 'NONE', *, *, #418, .F. ) ;
#292 = VECTOR ( 'NONE', #201, 1000.000000000000000 ) ;
#293 = ORIENTED_EDGE ( 'NONE', *, *, #519, .T. ) ;
#294 = VECTOR ( 'NONE', #472, 1000.000000000000000 ) ;
#295 = PLANE ( 'NONE',  #657 ) ;
#296 = LINE ( 'NONE', #505, #565 ) ;
#297 = ORIENTED_EDGE ( 'NONE', *, *, #662, .F. ) ;
#298 = FILL_AREA_STYLE_COLOUR ( '', #728 ) ;
#299 = ORIENTED_EDGE ( 'NONE', *, *, #174, .T. ) ;
#300 = VECTOR ( 'NONE', #800, 1000.000000000000000 ) ;
#301 = AXIS2_PLACEMENT_3D ( 'NONE', #572, #456, #698 ) ;
#302 = MANIFOLD_SOLID_BREP ( 'Mirror1', #82 ) ;
#303 = EDGE_CURVE ( 'NONE', #33, #390, #211, .T. ) ;
#304 = FACE_OUTER_BOUND ( 'NONE', #232, .T. ) ;
#305 = ORIENTED_EDGE ( 'NONE', *, *, #233, .F. ) ;
#306 = LINE ( 'NONE', #525, #294 ) ;
#307 = ORIENTED_EDGE ( 'NONE', *, *, #222, .F. ) ;
#308 = CYLINDRICAL_SURFACE ( 'NONE', #152, 0.3999999999999993006 ) ;
#309 = VERTEX_POINT ( 'NONE', #438 ) ;
#310 = LINE ( 'NONE', #413, #311 ) ;
#311 = VECTOR ( 'NONE', #400, 1000.000000000000000 ) ;
#312 = DIRECTION ( 'NONE',  ( -1.000000000000000000, 0.000000000000000000, 0.000000000000000000 ) ) ;
#313 = LINE ( 'NONE', #139, #582 ) ;
#314 =( GEOMETRIC_REPRESENTATION_CONTEXT ( 3 ) GLOBAL_UNCERTAINTY_ASSIGNED_CONTEXT ( ( #516 ) ) GLOBAL_UNIT_ASSIGNED_CONTEXT ( ( #358, #414, #597 ) ) REPRESENTATION_CONTEXT ( 'NONE', 'WORKASPACE' ) );
#315 =( NAMED_UNIT ( * ) PLANE_ANGLE_UNIT ( ) SI_UNIT ( $, .RADIAN. ) );
#316 = ORIENTED_EDGE ( 'NONE', *, *, #479, .F. ) ;
#317 = CARTESIAN_POINT ( 'NONE',  ( -3.450000000000001954, 0.3999999999999990785, 3.000000000000000000 ) ) ;
#318 = FACE_OUTER_BOUND ( 'NONE', #46, .T. ) ;
#319 = UNCERTAINTY_MEASURE_WITH_UNIT (LENGTH_MEASURE( 1.000000000000000082E-05 ), #424, 'distance_accuracy_value', 'NONE');
#320 = CARTESIAN_POINT ( 'NONE',  ( 3.449999999999998845, 0.3999999999999999112, 3.000000000000000000 ) ) ;
#321 = LINE ( 'NONE', #643, #31 ) ;
#322 = ORIENTED_EDGE ( 'NONE', *, *, #207, .T. ) ;
#323 = FACE_OUTER_BOUND ( 'NONE', #791, .T. ) ;
#324 = DIRECTION ( 'NONE',  ( -0.000000000000000000, -0.000000000000000000, -1.000000000000000000 ) ) ;
#325 = EDGE_LOOP ( 'NONE', ( #632, #699, #149, #293, #219, #765, #532 ) ) ;
#326 = FACE_OUTER_BOUND ( 'NONE', #59, .T. ) ;
#327 = FILL_AREA_STYLE ('',( #114 ) ) ;
#328 = DIRECTION ( 'NONE',  ( -1.000000000000000000, -0.000000000000000000, -0.000000000000000000 ) ) ;
#329 = ADVANCED_FACE ( 'NONE', ( #729 ), #368, .F. ) ;
#330 = FILL_AREA_STYLE ('',( #246 ) ) ;
#331 =( GEOMETRIC_REPRESENTATION_CONTEXT ( 3 ) GLOBAL_UNCERTAINTY_ASSIGNED_CONTEXT ( ( #609 ) ) GLOBAL_UNIT_ASSIGNED_CONTEXT ( ( #551, #337, #618 ) ) REPRESENTATION_CONTEXT ( 'NONE', 'WORKASPACE' ) );
#332 = SHAPE_DEFINITION_REPRESENTATION ( #805, #94 ) ;
#333 = PLANE ( 'NONE',  #121 ) ;
#334 = ORIENTED_EDGE ( 'NONE', *, *, #491, .F. ) ;
#335 = ORIENTED_EDGE ( 'NONE', *, *, #127, .T. ) ;
#336 = CARTESIAN_POINT ( 'NONE',  ( -2.849999999999999201, 0.3999999999999991340, 2.500000000000000000 ) ) ;
#337 =( NAMED_UNIT ( * ) PLANE_ANGLE_UNIT ( ) SI_UNIT ( $, .RADIAN. ) );
#338 = CARTESIAN_POINT ( 'NONE',  ( 3.450000000000001954, 0.3999999999999990785, -2.500000000000000000 ) ) ;
#339 = VERTEX_POINT ( 'NONE', #111 ) ;
#340 = CARTESIAN_POINT ( 'NONE',  ( -3.850000000000000089, 0.3999999999999989675, 2.500000000000000000 ) ) ;
#341 = VERTEX_POINT ( 'NONE', #421 ) ;
#342 = ADVANCED_FACE ( 'NONE', ( #789 ), #169, .F. ) ;
#343 = CARTESIAN_POINT ( 'NONE',  ( 3.850000000000000089, 1.599999999999999867, 2.500000000000000000 ) ) ;
#344 = PLANE ( 'NONE',  #547 ) ;
#345 = CARTESIAN_POINT ( 'NONE',  ( -3.850000000000000089, 1.599999999999999867, 2.500000000000000000 ) ) ;
#346 = CARTESIAN_POINT ( 'NONE',  ( 3.450000000000001066, 0.3999999999999989675, 2.500000000000000000 ) ) ;
#347 =( GEOMETRIC_REPRESENTATION_CONTEXT ( 3 ) GLOBAL_UNCERTAINTY_ASSIGNED_CONTEXT ( ( #686 ) ) GLOBAL_UNIT_ASSIGNED_CONTEXT ( ( #624, #574, #39 ) ) REPRESENTATION_CONTEXT ( 'NONE', 'WORKASPACE' ) );
#348 = FILL_AREA_STYLE_COLOUR ( '', #497 ) ;
#349 = EDGE_CURVE ( 'NONE', #745, #261, #515, .T. ) ;
#350 = COLOUR_RGB ( '',0.7921568627450980005, 0.8196078431372548767, 0.9333333333333333481 ) ;
#351 = ORIENTED_EDGE ( 'NONE', *, *, #68, .T. ) ;
#352 = AXIS2_PLACEMENT_3D ( 'NONE', #627, #543, #617 ) ;
#353 = DIRECTION ( 'NONE',  ( 2.065146995210484202E-16, 1.000000000000000000, 0.000000000000000000 ) ) ;
#354 = CARTESIAN_POINT ( 'NONE',  ( 3.450000000000000622, 0.000000000000000000, -2.500000000000000000 ) ) ;
#355 = ORIENTED_EDGE ( 'NONE', *, *, #685, .T. ) ;
#356 = STYLED_ITEM ( 'NONE', ( #773 ), #392 ) ;
#357 = ORIENTED_EDGE ( 'NONE', *, *, #475, .F. ) ;
#358 =( LENGTH_UNIT ( ) NAMED_UNIT ( * ) SI_UNIT ( .MILLI., .METRE. ) );
#359 = EDGE_CURVE ( 'NONE', #548, #53, #769, .T. ) ;
#360 = DIRECTION ( 'NONE',  ( 1.000000000000000000, -1.840757888321918559E-16, 0.000000000000000000 ) ) ;
#361 = CARTESIAN_POINT ( 'NONE',  ( -2.449999999999999734, 0.3999999999999990785, 2.500000000000000000 ) ) ;
#362 = ORIENTED_EDGE ( 'NONE', *, *, #670, .F. ) ;
#363 = DIRECTION ( 'NONE',  ( -0.000000000000000000, 0.000000000000000000, -1.000000000000000000 ) ) ;
#364 = EDGE_CURVE ( 'NONE', #369, #535, #783, .T. ) ;
#365 = DIRECTION ( 'NONE',  ( 0.000000000000000000, -0.000000000000000000, -1.000000000000000000 ) ) ;
#366 = ORIENTED_EDGE ( 'NONE', *, *, #364, .T. ) ;
#367 = ORIENTED_EDGE ( 'NONE', *, *, #443, .F. ) ;
#368 = PLANE ( 'NONE',  #370 ) ;
#369 = VERTEX_POINT ( 'NONE', #200 ) ;
#370 = AXIS2_PLACEMENT_3D ( 'NONE', #252, #481, #820 ) ;
#371 = AXIS2_PLACEMENT_3D ( 'NONE', #801, #427, #181 ) ;
#372 = ADVANCED_FACE ( 'NONE', ( #245 ), #528, .T. ) ;
#373 = VERTEX_POINT ( 'NONE', #778 ) ;
#374 = CARTESIAN_POINT ( 'NONE',  ( -3.450000000000001954, 0.3999999999999990785, -2.500000000000000000 ) ) ;
#375 = UNCERTAINTY_MEASURE_WITH_UNIT (LENGTH_MEASURE( 1.000000000000000082E-05 ), #733, 'distance_accuracy_value', 'NONE');
#376 =( NAMED_UNIT ( * ) SI_UNIT ( $, .STERADIAN. ) SOLID_ANGLE_UNIT ( ) );
#377 = DIRECTION ( 'NONE',  ( 1.000000000000000000, 0.000000000000000000, -0.000000000000000000 ) ) ;
#378 = ORIENTED_EDGE ( 'NONE', *, *, #190, .T. ) ;
#379 =( NAMED_UNIT ( * ) PLANE_ANGLE_UNIT ( ) SI_UNIT ( $, .RADIAN. ) );
#380 = DIRECTION ( 'NONE',  ( 1.000000000000000000, 1.178480622266852710E-16, 0.000000000000000000 ) ) ;
#381 = STYLED_ITEM ( 'NONE', ( #184 ), #329 ) ;
#382 = ORIENTED_EDGE ( 'NONE', *, *, #268, .T. ) ;
#383 = PRODUCT_CONTEXT ( 'NONE', #42, 'mechanical' ) ;
#384 = AXIS2_PLACEMENT_3D ( 'NONE', #650, #608, #663 ) ;
#385 = ORIENTED_EDGE ( 'NONE', *, *, #553, .F. ) ;
#386 = CARTESIAN_POINT ( 'NONE',  ( -3.850000000000000089, 1.599999999999999867, -2.500000000000000000 ) ) ;
#387 = EDGE_LOOP ( 'NONE', ( #507, #357, #621, #518 ) ) ;
#388 = SURFACE_SIDE_STYLE ('',( #203 ) ) ;
#389 = MECHANICAL_DESIGN_GEOMETRIC_PRESENTATION_REPRESENTATION (  '', ( #578 ), #44 ) ;
#390 = VERTEX_POINT ( 'NONE', #594 ) ;
#391 = EDGE_CURVE ( 'NONE', #672, #369, #524, .T. ) ;
#392 = ADVANCED_FACE ( 'NONE', ( #223 ), #344, .F. ) ;
#393 = EDGE_LOOP ( 'NONE', ( #623, #527, #88, #382 ) ) ;
#394 = PRODUCT_RELATED_PRODUCT_CATEGORY ( 'part', '', ( #225 ) ) ;
#395 = AXIS2_PLACEMENT_3D ( 'NONE', #803, #448, #620 ) ;
#396 = DIRECTION ( 'NONE',  ( -0.000000000000000000, -0.000000000000000000, -1.000000000000000000 ) ) ;
#397 = ADVANCED_FACE ( 'NONE', ( #274 ), #143, .F. ) ;
#398 = DIRECTION ( 'NONE',  ( -0.000000000000000000, 0.000000000000000000, -1.000000000000000000 ) ) ;
#399 = ORIENTED_EDGE ( 'NONE', *, *, #174, .F. ) ;
#400 = DIRECTION ( 'NONE',  ( -0.000000000000000000, -0.000000000000000000, -1.000000000000000000 ) ) ;
#401 = EDGE_CURVE ( 'NONE', #688, #629, #265, .T. ) ;
#402 = DIRECTION ( 'NONE',  ( 1.000000000000000000, 0.000000000000000000, 0.000000000000000000 ) ) ;
#403 = UNCERTAINTY_MEASURE_WITH_UNIT (LENGTH_MEASURE( 1.000000000000000082E-05 ), #694, 'distance_accuracy_value', 'NONE');
#404 =( NAMED_UNIT ( * ) SI_UNIT ( $, .STERADIAN. ) SOLID_ANGLE_UNIT ( ) );
#405 = ORIENTED_EDGE ( 'NONE', *, *, #590, .T. ) ;
#406 = PLANE ( 'NONE',  #673 ) ;
#407 = CARTESIAN_POINT ( 'NONE',  ( -3.450000000000001954, 0.3999999999999990785, 2.500000000000000000 ) ) ;
#408 = PRESENTATION_LAYER_ASSIGNMENT (  '', '', ( #381 ) ) ;
#409 = EDGE_LOOP ( 'NONE', ( #91, #788, #537, #605 ) ) ;
#410 = STYLED_ITEM ( 'NONE', ( #431 ), #92 ) ;
#411 = ORIENTED_EDGE ( 'NONE', *, *, #635, .F. ) ;
#412 = EDGE_CURVE ( 'NONE', #309, #561, #540, .T. ) ;
#413 = CARTESIAN_POINT ( 'NONE',  ( -3.450000000000001954, 0.3999999999999990785, 2.500000000000000000 ) ) ;
#414 =( NAMED_UNIT ( * ) PLANE_ANGLE_UNIT ( ) SI_UNIT ( $, .RADIAN. ) );
#415 =( NAMED_UNIT ( * ) PLANE_ANGLE_UNIT ( ) SI_UNIT ( $, .RADIAN. ) );
#416 = CARTESIAN_POINT ( 'NONE',  ( -3.450000000000001066, 4.599999999999999645, 3.000000000000000000 ) ) ;
#417 = MECHANICAL_DESIGN_GEOMETRIC_PRESENTATION_REPRESENTATION (  '', ( #26 ), #347 ) ;
#418 = EDGE_CURVE ( 'NONE', #118, #784, #556, .T. ) ;
#419 = AXIS2_PLACEMENT_3D ( 'NONE', #461, #145, #214 ) ;
#420 = FILL_AREA_STYLE ('',( #298 ) ) ;
#421 = CARTESIAN_POINT ( 'NONE',  ( 3.850000000000000089, 1.599999999999999867, -2.500000000000000000 ) ) ;
#422 = EDGE_CURVE ( 'NONE', #261, #101, #822, .T. ) ;
#423 = ADVANCED_FACE ( 'NONE', ( #544 ), #534, .T. ) ;
#424 =( LENGTH_UNIT ( ) NAMED_UNIT ( * ) SI_UNIT ( .MILLI., .METRE. ) );
#425 = ORIENTED_EDGE ( 'NONE', *, *, #767, .F. ) ;
#426 = LINE ( 'NONE', #10, #447 ) ;
#427 = DIRECTION ( 'NONE',  ( -1.178480622266852463E-16, 1.000000000000000000, 0.000000000000000000 ) ) ;
#428 = LINE ( 'NONE', #633, #718 ) ;
#429 = CARTESIAN_POINT ( 'NONE',  ( -3.850000000000000089, 1.599999999999999867, 2.500000000000000000 ) ) ;
#430 = ADVANCED_FACE ( 'NONE', ( #802 ), #5, .F. ) ;
#431 = PRESENTATION_STYLE_ASSIGNMENT (( #738 ) ) ;
#432 = EDGE_CURVE ( 'NONE', #15, #341, #827, .T. ) ;
#433 = VECTOR ( 'NONE', #768, 1000.000000000000000 ) ;
#434 = EDGE_CURVE ( 'NONE', #156, #43, #813, .T. ) ;
#435 = DIRECTION ( 'NONE',  ( -0.000000000000000000, -0.000000000000000000, -1.000000000000000000 ) ) ;
#436 = PRESENTATION_STYLE_ASSIGNMENT (( #150 ) ) ;
#437 = ORIENTED_EDGE ( 'NONE', *, *, #509, .T. ) ;
#438 = CARTESIAN_POINT ( 'NONE',  ( -2.849999999999999201, -5.421010862427522170E-17, 2.500000000000000000 ) ) ;
#439 = DIRECTION ( 'NONE',  ( -1.000000000000000000, 0.000000000000000000, 0.000000000000000000 ) ) ;
#440 = ORIENTED_EDGE ( 'NONE', *, *, #268, .F. ) ;
#441 = DIRECTION ( 'NONE',  ( 3.614007241618345813E-16, 1.000000000000000000, 0.000000000000000000 ) ) ;
#442 = VECTOR ( 'NONE', #365, 1000.000000000000000 ) ;
#443 = EDGE_CURVE ( 'NONE', #782, #672, #536, .T. ) ;
#444 = LINE ( 'NONE', #612, #706 ) ;
#445 = CARTESIAN_POINT ( 'NONE',  ( 3.450000000000001954, 0.3999999999999990785, -2.500000000000000000 ) ) ;
#446 = AXIS2_PLACEMENT_3D ( 'NONE', #212, #286, #360 ) ;
#447 = VECTOR ( 'NONE', #577, 1000.000000000000000 ) ;
#448 = DIRECTION ( 'NONE',  ( 0.000000000000000000, 0.000000000000000000, 1.000000000000000000 ) ) ;
#449 = LINE ( 'NONE', #208, #165 ) ;
#450 = DIRECTION ( 'NONE',  ( 0.000000000000000000, 0.000000000000000000, 1.000000000000000000 ) ) ;
#451 = LINE ( 'NONE', #240, #167 ) ;
#452 = ADVANCED_FACE ( 'NONE', ( #817 ), #178, .F. ) ;
#453 = CARTESIAN_POINT ( 'NONE',  ( 3.450000000000001066, 0.3999999999999989675, 2.500000000000000000 ) ) ;
#454 = VECTOR ( 'NONE', #18, 1000.000000000000000 ) ;
#455 = AXIS2_PLACEMENT_3D ( 'NONE', #346, #281, #402 ) ;
#456 = DIRECTION ( 'NONE',  ( 0.000000000000000000, -0.000000000000000000, -1.000000000000000000 ) ) ;
#457 = LINE ( 'NONE', #776, #484 ) ;
#458 = CARTESIAN_POINT ( 'NONE',  ( 3.850000000000000089, 1.599999999999999867, 2.500000000000000000 ) ) ;
#459 = AXIS2_PLACEMENT_3D ( 'NONE', #73, #195, #398 ) ;
#460 = CIRCLE ( 'NONE', #790, 0.3999999999999993006 ) ;
#461 = CARTESIAN_POINT ( 'NONE',  ( 3.450000000000001954, 0.3999999999999990785, 2.500000000000000000 ) ) ;
#462 = FACE_OUTER_BOUND ( 'NONE', #110, .T. ) ;
#463 = PLANE ( 'NONE',  #779 ) ;
#464 = VECTOR ( 'NONE', #680, 1000.000000000000000 ) ;
#465 = PRESENTATION_LAYER_ASSIGNMENT (  '', '', ( #26 ) ) ;
#466 = CARTESIAN_POINT ( 'NONE',  ( -3.850000000000000089, 1.599999999999999867, 2.500000000000000000 ) ) ;
#467 = CARTESIAN_POINT ( 'NONE',  ( -3.450000000000001066, 4.599999999999999645, 3.000000000000000000 ) ) ;
#468 = LINE ( 'NONE', #77, #748 ) ;
#469 = PRODUCT_DEFINITION ( 'UNKNOWN', '', #119, #764 ) ;
#470 = FILL_AREA_STYLE ('',( #348 ) ) ;
#471 = UNCERTAINTY_MEASURE_WITH_UNIT (LENGTH_MEASURE( 1.000000000000000082E-05 ), #760, 'distance_accuracy_value', 'NONE');
#472 = DIRECTION ( 'NONE',  ( 1.000000000000000000, -0.000000000000000000, -0.000000000000000000 ) ) ;
#473 = DIRECTION ( 'NONE',  ( 0.000000000000000000, -1.000000000000000000, -0.000000000000000000 ) ) ;
#474 = CARTESIAN_POINT ( 'NONE',  ( 3.450000000000000622, -1.646555819235906064E-16, -2.500000000000000000 ) ) ;
#475 = EDGE_CURVE ( 'NONE', #156, #35, #282, .T. ) ;
#476 = LINE ( 'NONE', #592, #741 ) ;
#477 =( LENGTH_UNIT ( ) NAMED_UNIT ( * ) SI_UNIT ( .MILLI., .METRE. ) );
#478 = CARTESIAN_POINT ( 'NONE',  ( 2.849999999999999201, 0.3999999999999991340, -2.500000000000000000 ) ) ;
#479 = EDGE_CURVE ( 'NONE', #579, #629, #260, .T. ) ;
#480 = ORIENTED_EDGE ( 'NONE', *, *, #136, .F. ) ;
#481 = DIRECTION ( 'NONE',  ( 0.000000000000000000, 0.000000000000000000, -1.000000000000000000 ) ) ;
#482 = PRESENTATION_STYLE_ASSIGNMENT (( #504 ) ) ;
#483 = DIRECTION ( 'NONE',  ( 0.000000000000000000, -0.000000000000000000, -1.000000000000000000 ) ) ;
#484 = VECTOR ( 'NONE', #717, 1000.000000000000000 ) ;
#485 = ORIENTED_EDGE ( 'NONE', *, *, #553, .T. ) ;
#486 = LINE ( 'NONE', #538, #724 ) ;
#487 = MANIFOLD_SOLID_BREP ( 'Boss-Extrude1', #541 ) ;
#488 = PRESENTATION_LAYER_ASSIGNMENT (  '', '', ( #356 ) ) ;
#489 = LINE ( 'NONE', #793, #493 ) ;
#490 = DIRECTION ( 'NONE',  ( -1.000000000000000000, 2.065146995210484448E-16, 0.000000000000000000 ) ) ;
#491 = EDGE_CURVE ( 'NONE', #649, #688, #279, .T. ) ;
#492 = CARTESIAN_POINT ( 'NONE',  ( -2.449999999999999734, 0.3999999999999991340, 2.500000000000000000 ) ) ;
#493 = VECTOR ( 'NONE', #135, 1000.000000000000000 ) ;
#494 =( NAMED_UNIT ( * ) SI_UNIT ( $, .STERADIAN. ) SOLID_ANGLE_UNIT ( ) );
#495 = FILL_AREA_STYLE_COLOUR ( '', #697 ) ;
#496 = CARTESIAN_POINT ( 'NONE',  ( 2.449999999999999734, 0.3999999999999990785, 2.500000000000000000 ) ) ;
#497 = COLOUR_RGB ( '',1.000000000000000000, 1.000000000000000000, 1.000000000000000000 ) ;
#498 = CARTESIAN_POINT ( 'NONE',  ( -3.850000000000000089, 1.599999999999999867, -2.500000000000000000 ) ) ;
#499 = SURFACE_STYLE_USAGE ( .BOTH. , #734 ) ;
#500 = ADVANCED_FACE ( 'NONE', ( #798 ), #333, .F. ) ;
#501 = CARTESIAN_POINT ( 'NONE',  ( 3.850000000000000089, 0.3999999999999989675, 2.500000000000000000 ) ) ;
#502 = DIRECTION ( 'NONE',  ( 0.000000000000000000, -1.000000000000000000, 0.000000000000000000 ) ) ;
#503 = VERTEX_POINT ( 'NONE', #386 ) ;
#504 = SURFACE_STYLE_USAGE ( .BOTH. , #388 ) ;
#505 = CARTESIAN_POINT ( 'NONE',  ( -3.450000000000001954, 0.3999999999999990785, -3.000000000000000000 ) ) ;
#506 = ADVANCED_FACE ( 'NONE', ( #549 ), #749, .F. ) ;
#507 = ORIENTED_EDGE ( 'NONE', *, *, #183, .T. ) ;
#508 = COLOUR_RGB ( '',1.000000000000000000, 1.000000000000000000, 1.000000000000000000 ) ;
#509 = EDGE_CURVE ( 'NONE', #390, #235, #580, .T. ) ;
#510 = DIRECTION ( 'NONE',  ( 1.000000000000000000, -0.000000000000000000, -0.000000000000000000 ) ) ;
#511 = DIRECTION ( 'NONE',  ( -1.000000000000000000, 0.000000000000000000, -0.000000000000000000 ) ) ;
#512 = ORIENTED_EDGE ( 'NONE', *, *, #182, .F. ) ;
#513 = CARTESIAN_POINT ( 'NONE',  ( -3.450000000000001066, 0.3999999999999989675, -2.500000000000000000 ) ) ;
#514 = ADVANCED_FACE ( 'NONE', ( #326 ), #562, .F. ) ;
#515 = LINE ( 'NONE', #806, #227 ) ;
#516 = UNCERTAINTY_MEASURE_WITH_UNIT (LENGTH_MEASURE( 1.000000000000000082E-05 ), #358, 'distance_accuracy_value', 'NONE');
#517 = DIRECTION ( 'NONE',  ( 1.000000000000000000, -2.065146995210484202E-16, 0.000000000000000000 ) ) ;
#518 = ORIENTED_EDGE ( 'NONE', *, *, #625, .T. ) ;
#519 = EDGE_CURVE ( 'NONE', #43, #309, #321, .T. ) ;
#520 = CARTESIAN_POINT ( 'NONE',  ( -3.850000000000000089, 0.3999999999999989675, 2.500000000000000000 ) ) ;
#521 = SURFACE_STYLE_FILL_AREA ( #330 ) ;
#522 = CARTESIAN_POINT ( 'NONE',  ( -2.849999999999999201, 0.3999999999999991340, -2.500000000000000000 ) ) ;
#523 = AXIS2_PLACEMENT_3D ( 'NONE', #720, #396, #206 ) ;
#524 = CIRCLE ( 'NONE', #189, 0.3999999999999993006 ) ;
#525 = CARTESIAN_POINT ( 'NONE',  ( 3.850000000000000089, 1.599999999999999867, 2.500000000000000000 ) ) ;
#526 = VECTOR ( 'NONE', #732, 1000.000000000000000 ) ;
#527 = ORIENTED_EDGE ( 'NONE', *, *, #807, .F. ) ;
#528 = PLANE ( 'NONE',  #529 ) ;
#529 = AXIS2_PLACEMENT_3D ( 'NONE', #604, #86, #511 ) ;
#530 = EDGE_LOOP ( 'NONE', ( #437, #378, #75, #799 ) ) ;
#531 = VECTOR ( 'NONE', #47, 1000.000000000000000 ) ;
#532 = ORIENTED_EDGE ( 'NONE', *, *, #14, .T. ) ;
#533 = DIRECTION ( 'NONE',  ( -1.000000000000000000, 1.840757888321918805E-16, 0.000000000000000000 ) ) ;
#534 = CYLINDRICAL_SURFACE ( 'NONE', #70, 0.3999999999999988565 ) ;
#535 = VERTEX_POINT ( 'NONE', #374 ) ;
#536 = LINE ( 'NONE', #555, #526 ) ;
#537 = ORIENTED_EDGE ( 'NONE', *, *, #76, .F. ) ;
#538 = CARTESIAN_POINT ( 'NONE',  ( 3.449999999999999289, 4.599999999999999645, 3.000000000000000000 ) ) ;
#539 = ORIENTED_EDGE ( 'NONE', *, *, #590, .F. ) ;
#540 = CIRCLE ( 'NONE', #384, 0.3999999999999993006 ) ;
#541 = CLOSED_SHELL ( 'NONE', ( #342, #193, #392, #259, #329, #372 ) ) ;
#542 = EDGE_CURVE ( 'NONE', #714, #166, #296, .T. ) ;
#543 = DIRECTION ( 'NONE',  ( 0.000000000000000000, 0.000000000000000000, 1.000000000000000000 ) ) ;
#544 = FACE_OUTER_BOUND ( 'NONE', #108, .T. ) ;
#545 = ORIENTED_EDGE ( 'NONE', *, *, #359, .F. ) ;
#546 = SURFACE_SIDE_STYLE ('',( #215 ) ) ;
#547 = AXIS2_PLACEMENT_3D ( 'NONE', #25, #517, #353 ) ;
#548 = VERTEX_POINT ( 'NONE', #735 ) ;
#549 = FACE_OUTER_BOUND ( 'NONE', #613, .T. ) ;
#550 = ADVANCED_FACE ( 'NONE', ( #318 ), #308, .T. ) ;
#551 =( LENGTH_UNIT ( ) NAMED_UNIT ( * ) SI_UNIT ( .MILLI., .METRE. ) );
#552 = PRESENTATION_STYLE_ASSIGNMENT (( #828 ) ) ;
#553 = EDGE_CURVE ( 'NONE', #579, #548, #19, .T. ) ;
#554 = VERTEX_POINT ( 'NONE', #429 ) ;
#555 = CARTESIAN_POINT ( 'NONE',  ( -3.450000000000000622, -1.646555819235906064E-16, -2.500000000000000000 ) ) ;
#556 = LINE ( 'NONE', #701, #283 ) ;
#557 = MECHANICAL_DESIGN_GEOMETRIC_PRESENTATION_REPRESENTATION (  '', ( #716 ), #99 ) ;
#558 = VECTOR ( 'NONE', #656, 1000.000000000000000 ) ;
#559 = SURFACE_SIDE_STYLE ('',( #726 ) ) ;
#560 = VECTOR ( 'NONE', #220, 1000.000000000000000 ) ;
#561 = VERTEX_POINT ( 'NONE', #492 ) ;
#562 = PLANE ( 'NONE',  #395 ) ;
#563 = FACE_OUTER_BOUND ( 'NONE', #264, .T. ) ;
#564 = FACE_OUTER_BOUND ( 'NONE', #387, .T. ) ;
#565 = VECTOR ( 'NONE', #380, 1000.000000000000000 ) ;
#566 =( NAMED_UNIT ( * ) SI_UNIT ( $, .STERADIAN. ) SOLID_ANGLE_UNIT ( ) );
#567 = ORIENTED_EDGE ( 'NONE', *, *, #391, .F. ) ;
#568 = VECTOR ( 'NONE', #154, 1000.000000000000000 ) ;
#569 = ORIENTED_EDGE ( 'NONE', *, *, #364, .F. ) ;
#570 = VECTOR ( 'NONE', #725, 1000.000000000000000 ) ;
#571 = LINE ( 'NONE', #48, #16 ) ;
#572 = CARTESIAN_POINT ( 'NONE',  ( 2.849999999999999201, 0.3999999999999991340, 2.500000000000000000 ) ) ;
#573 = ORIENTED_EDGE ( 'NONE', *, *, #359, .T. ) ;
#574 =( NAMED_UNIT ( * ) PLANE_ANGLE_UNIT ( ) SI_UNIT ( $, .RADIAN. ) );
#575 = DIRECTION ( 'NONE',  ( 0.000000000000000000, 0.000000000000000000, -1.000000000000000000 ) ) ;
#576 = LINE ( 'NONE', #175, #300 ) ;
#577 = DIRECTION ( 'NONE',  ( -2.065146995210484448E-16, -1.000000000000000000, -0.000000000000000000 ) ) ;
#578 = STYLED_ITEM ( 'NONE', ( #221 ), #372 ) ;
#579 = VERTEX_POINT ( 'NONE', #107 ) ;
#580 = LINE ( 'NONE', #254, #29 ) ;
#581 = EDGE_CURVE ( 'NONE', #772, #15, #306, .T. ) ;
#582 = VECTOR ( 'NONE', #792, 1000.000000000000000 ) ;
#583 = CYLINDRICAL_SURFACE ( 'NONE', #192, 0.3999999999999988565 ) ;
#584 = LINE ( 'NONE', #345, #568 ) ;
#585 = CARTESIAN_POINT ( 'NONE',  ( 3.450000000000001510, 1.599999999999999867, -2.500000000000000000 ) ) ;
#586 = FACE_OUTER_BOUND ( 'NONE', #393, .T. ) ;
#587 = ORIENTED_EDGE ( 'NONE', *, *, #422, .T. ) ;
#588 = DIRECTION ( 'NONE',  ( 0.000000000000000000, 0.000000000000000000, 1.000000000000000000 ) ) ;
#589 = CIRCLE ( 'NONE', #523, 0.3999999999999988565 ) ;
#590 = EDGE_CURVE ( 'NONE', #784, #688, #589, .T. ) ;
#591 = LINE ( 'NONE', #84, #6 ) ;
#592 = CARTESIAN_POINT ( 'NONE',  ( -3.850000000000000089, 0.3999999999999989675, 2.500000000000000000 ) ) ;
#593 = CIRCLE ( 'NONE', #163, 0.3999999999999988565 ) ;
#594 = CARTESIAN_POINT ( 'NONE',  ( 3.449999999999998845, 0.3999999999999999112, 3.000000000000000000 ) ) ;
#595 = LINE ( 'NONE', #710, #558 ) ;
#596 = CARTESIAN_POINT ( 'NONE',  ( -3.450000000000001954, 0.3999999999999990785, -3.000000000000000000 ) ) ;
#597 =( NAMED_UNIT ( * ) SI_UNIT ( $, .STERADIAN. ) SOLID_ANGLE_UNIT ( ) );
#598 = FILL_AREA_STYLE_COLOUR ( '', #794 ) ;
#599 = UNCERTAINTY_MEASURE_WITH_UNIT (LENGTH_MEASURE( 1.000000000000000082E-05 ), #20, 'distance_accuracy_value', 'NONE');
#600 = DIRECTION ( 'NONE',  ( 1.000000000000000000, 0.000000000000000000, 0.000000000000000000 ) ) ;
#601 = STYLED_ITEM ( 'NONE', ( #757 ), #259 ) ;
#602 = CARTESIAN_POINT ( 'NONE',  ( -3.450000000000001066, 4.599999999999999645, 3.000000000000000000 ) ) ;
#603 = EDGE_CURVE ( 'NONE', #339, #231, #313, .T. ) ;
#604 = CARTESIAN_POINT ( 'NONE',  ( 0.000000000000000000, 0.000000000000000000, -3.000000000000000000 ) ) ;
#605 = ORIENTED_EDGE ( 'NONE', *, *, #125, .F. ) ;
#606 = DIRECTION ( 'NONE',  ( 0.000000000000000000, 0.000000000000000000, -1.000000000000000000 ) ) ;
#607 = FILL_AREA_STYLE_COLOUR ( '', #159 ) ;
#608 = DIRECTION ( 'NONE',  ( 0.000000000000000000, 0.000000000000000000, 1.000000000000000000 ) ) ;
#609 = UNCERTAINTY_MEASURE_WITH_UNIT (LENGTH_MEASURE( 1.000000000000000082E-05 ), #551, 'distance_accuracy_value', 'NONE');
#610 = CARTESIAN_POINT ( 'NONE',  ( -3.450000000000000622, -1.646555819235906064E-16, 2.500000000000000000 ) ) ;
#611 = ORIENTED_EDGE ( 'NONE', *, *, #198, .T. ) ;
#612 = CARTESIAN_POINT ( 'NONE',  ( -3.850000000000000089, 0.3999999999999989675, -2.500000000000000000 ) ) ;
#613 = EDGE_LOOP ( 'NONE', ( #824, #480, #569, #567, #367, #640, #809 ) ) ;
#614 = SURFACE_STYLE_FILL_AREA ( #327 ) ;
#615 = SURFACE_STYLE_USAGE ( .BOTH. , #546 ) ;
#616 = CLOSED_SHELL ( 'NONE', ( #60, #648, #423, #762, #550, #452, #744, #72, #506 ) ) ;
#617 = DIRECTION ( 'NONE',  ( 1.000000000000000000, 0.000000000000000000, 0.000000000000000000 ) ) ;
#618 =( NAMED_UNIT ( * ) SI_UNIT ( $, .STERADIAN. ) SOLID_ANGLE_UNIT ( ) );
#619 = ORIENTED_EDGE ( 'NONE', *, *, #244, .F. ) ;
#620 = DIRECTION ( 'NONE',  ( -1.000000000000000000, 0.000000000000000000, 0.000000000000000000 ) ) ;
#621 = ORIENTED_EDGE ( 'NONE', *, *, #28, .F. ) ;
#622 = SURFACE_SIDE_STYLE ('',( #614 ) ) ;
#623 = ORIENTED_EDGE ( 'NONE', *, *, #443, .T. ) ;
#624 =( LENGTH_UNIT ( ) NAMED_UNIT ( * ) SI_UNIT ( .MILLI., .METRE. ) );
#625 = EDGE_CURVE ( 'NONE', #554, #503, #584, .T. ) ;
#626 = DIRECTION ( 'NONE',  ( 2.065146995210484695E-16, 1.000000000000000000, 0.000000000000000000 ) ) ;
#627 = CARTESIAN_POINT ( 'NONE',  ( 0.000000000000000000, 0.000000000000000000, 0.000000000000000000 ) ) ;
#628 = DIRECTION ( 'NONE',  ( -0.000000000000000000, -0.000000000000000000, -1.000000000000000000 ) ) ;
#629 = VERTEX_POINT ( 'NONE', #277 ) ;
#630 = DIRECTION ( 'NONE',  ( 0.000000000000000000, -0.000000000000000000, -1.000000000000000000 ) ) ;
#631 = ORIENTED_EDGE ( 'NONE', *, *, #244, .T. ) ;
#632 = ORIENTED_EDGE ( 'NONE', *, *, #670, .T. ) ;
#633 = CARTESIAN_POINT ( 'NONE',  ( 3.850000000000000089, 0.3999999999999989675, -2.500000000000000000 ) ) ;
#634 = ORIENTED_EDGE ( 'NONE', *, *, #95, .F. ) ;
#635 = EDGE_CURVE ( 'NONE', #15, #118, #21, .T. ) ;
#636 = FILL_AREA_STYLE ('',( #191 ) ) ;
#637 = EDGE_CURVE ( 'NONE', #166, #241, #591, .T. ) ;
#638 = PLANE ( 'NONE',  #89 ) ;
#639 = PRESENTATION_LAYER_ASSIGNMENT (  '', '', ( #716 ) ) ;
#640 = ORIENTED_EDGE ( 'NONE', *, *, #646, .F. ) ;
#641 = FILL_AREA_STYLE_COLOUR ( '', #759 ) ;
#642 = ADVANCED_FACE ( 'NONE', ( #323 ), #583, .T. ) ;
#643 = CARTESIAN_POINT ( 'NONE',  ( -3.450000000000000622, -1.646555819235906064E-16, 2.500000000000000000 ) ) ;
#644 =( GEOMETRIC_REPRESENTATION_CONTEXT ( 3 ) GLOBAL_UNCERTAINTY_ASSIGNED_CONTEXT ( ( #599 ) ) GLOBAL_UNIT_ASSIGNED_CONTEXT ( ( #20, #267, #204 ) ) REPRESENTATION_CONTEXT ( 'NONE', 'WORKASPACE' ) );
#645 = SURFACE_SIDE_STYLE ('',( #239 ) ) ;
#646 = EDGE_CURVE ( 'NONE', #35, #782, #593, .T. ) ;
#647 = DIRECTION ( 'NONE',  ( -1.000000000000000000, 0.000000000000000000, 0.000000000000000000 ) ) ;
#648 = ADVANCED_FACE ( 'NONE', ( #564 ), #295, .F. ) ;
#649 = VERTEX_POINT ( 'NONE', #715 ) ;
#650 = CARTESIAN_POINT ( 'NONE',  ( -2.849999999999999201, 0.3999999999999991340, 2.500000000000000000 ) ) ;
#651 = PLANE ( 'NONE',  #681 ) ;
#652 =( GEOMETRIC_REPRESENTATION_CONTEXT ( 3 ) GLOBAL_UNCERTAINTY_ASSIGNED_CONTEXT ( ( #403 ) ) GLOBAL_UNIT_ASSIGNED_CONTEXT ( ( #694, #45, #677 ) ) REPRESENTATION_CONTEXT ( 'NONE', 'WORKASPACE' ) );
#653 = SURFACE_SIDE_STYLE ('',( #151 ) ) ;
#654 = EDGE_LOOP ( 'NONE', ( #37, #758, #278, #775 ) ) ;
#655 = FILL_AREA_STYLE ('',( #598 ) ) ;
#656 = DIRECTION ( 'NONE',  ( -1.000000000000000000, 1.840757888321918805E-16, 0.000000000000000000 ) ) ;
#657 = AXIS2_PLACEMENT_3D ( 'NONE', #74, #81, #606 ) ;
#658 = CARTESIAN_POINT ( 'NONE',  ( 3.449999999999999289, 4.599999999999999645, 3.000000000000000000 ) ) ;
#659 = CARTESIAN_POINT ( 'NONE',  ( 3.850000000000000089, 0.3999999999999989675, 2.500000000000000000 ) ) ;
#660 = PRESENTATION_LAYER_ASSIGNMENT (  '', '', ( #601 ) ) ;
#661 = ORIENTED_EDGE ( 'NONE', *, *, #401, .F. ) ;
#662 = EDGE_CURVE ( 'NONE', #649, #579, #595, .T. ) ;
#663 = DIRECTION ( 'NONE',  ( 1.000000000000000000, 0.000000000000000000, 0.000000000000000000 ) ) ;
#664 = DIRECTION ( 'NONE',  ( -1.840757888321918559E-16, 1.000000000000000000, 0.000000000000000000 ) ) ;
#665 = ORIENTED_EDGE ( 'NONE', *, *, #233, .T. ) ;
#666 = DIRECTION ( 'NONE',  ( -3.614007241618345813E-16, 1.000000000000000000, 0.000000000000000000 ) ) ;
#667 = ORIENTED_EDGE ( 'NONE', *, *, #581, .F. ) ;
#668 = CARTESIAN_POINT ( 'NONE',  ( 3.450000000000001510, 1.599999999999999867, 2.500000000000000000 ) ) ;
#669 = ORIENTED_EDGE ( 'NONE', *, *, #95, .T. ) ;
#670 = EDGE_CURVE ( 'NONE', #339, #554, #2, .T. ) ;
#671 = ORIENTED_EDGE ( 'NONE', *, *, #780, .F. ) ;
#672 = VERTEX_POINT ( 'NONE', #781 ) ;
#673 = AXIS2_PLACEMENT_3D ( 'NONE', #610, #664, #730 ) ;
#674 = CARTESIAN_POINT ( 'NONE',  ( -3.450000000000000622, 0.000000000000000000, -2.500000000000000000 ) ) ;
#675 = ADVANCED_FACE ( 'NONE', ( #304 ), #766, .T. ) ;
#676 = ORIENTED_EDGE ( 'NONE', *, *, #662, .T. ) ;
#677 =( NAMED_UNIT ( * ) SI_UNIT ( $, .STERADIAN. ) SOLID_ANGLE_UNIT ( ) );
#678 = CARTESIAN_POINT ( 'NONE',  ( -2.849999999999999201, 0.3999999999999991340, 2.500000000000000000 ) ) ;
#679 = PRESENTATION_LAYER_ASSIGNMENT (  '', '', ( #24 ) ) ;
#680 = DIRECTION ( 'NONE',  ( 1.000000000000000000, 1.178480622266852710E-16, 0.000000000000000000 ) ) ;
#681 = AXIS2_PLACEMENT_3D ( 'NONE', #707, #774, #17 ) ;
#682 = CARTESIAN_POINT ( 'NONE',  ( -2.849999999999999201, 0.3999999999999991340, -2.500000000000000000 ) ) ;
#683 = APPLICATION_CONTEXT ( 'automotive_design' ) ;
#684 = CARTESIAN_POINT ( 'NONE',  ( -3.450000000000001066, 4.599999999999999645, -3.000000000000000000 ) ) ;
#685 = EDGE_CURVE ( 'NONE', #373, #32, #22, .T. ) ;
#686 = UNCERTAINTY_MEASURE_WITH_UNIT (LENGTH_MEASURE( 1.000000000000000082E-05 ), #624, 'distance_accuracy_value', 'NONE');
#687 = EDGE_CURVE ( 'NONE', #146, #535, #310, .T. ) ;
#688 = VERTEX_POINT ( 'NONE', #354 ) ;
#689 = ORIENTED_EDGE ( 'NONE', *, *, #542, .T. ) ;
#690 = DIRECTION ( 'NONE',  ( 1.000000000000000000, 0.000000000000000000, 0.000000000000000000 ) ) ;
#691 = ORIENTED_EDGE ( 'NONE', *, *, #391, .T. ) ;
#692 = CARTESIAN_POINT ( 'NONE',  ( -3.850000000000000089, 0.3999999999999989675, -2.500000000000000000 ) ) ;
#693 = EDGE_LOOP ( 'NONE', ( #307, #316, #485, #322 ) ) ;
#694 =( LENGTH_UNIT ( ) NAMED_UNIT ( * ) SI_UNIT ( .MILLI., .METRE. ) );
#695 =( GEOMETRIC_REPRESENTATION_CONTEXT ( 3 ) GLOBAL_UNCERTAINTY_ASSIGNED_CONTEXT ( ( #93 ) ) GLOBAL_UNIT_ASSIGNED_CONTEXT ( ( #740, #379, #566 ) ) REPRESENTATION_CONTEXT ( 'NONE', 'WORKASPACE' ) );
#696 = ORIENTED_EDGE ( 'NONE', *, *, #603, .T. ) ;
#697 = COLOUR_RGB ( '',0.7921568627450980005, 0.8196078431372548767, 0.9333333333333333481 ) ;
#698 = DIRECTION ( 'NONE',  ( 1.000000000000000000, 0.000000000000000000, 0.000000000000000000 ) ) ;
#699 = ORIENTED_EDGE ( 'NONE', *, *, #28, .T. ) ;
#700 = LINE ( 'NONE', #289, #442 ) ;
#701 = CARTESIAN_POINT ( 'NONE',  ( 3.850000000000000089, 0.3999999999999989675, 2.500000000000000000 ) ) ;
#702 = VECTOR ( 'NONE', #216, 1000.000000000000000 ) ;
#703 = ORIENTED_EDGE ( 'NONE', *, *, #767, .T. ) ;
#704 = PLANE ( 'NONE',  #133 ) ;
#705 = EDGE_LOOP ( 'NONE', ( #737, #770, #573, #299 ) ) ;
#706 = VECTOR ( 'NONE', #129, 1000.000000000000000 ) ;
#707 = CARTESIAN_POINT ( 'NONE',  ( -3.450000000000001954, 0.3999999999999990785, 2.500000000000000000 ) ) ;
#708 = ORIENTED_EDGE ( 'NONE', *, *, #182, .T. ) ;
#709 = SURFACE_SIDE_STYLE ('',( #787 ) ) ;
#710 = CARTESIAN_POINT ( 'NONE',  ( 3.450000000000000622, -1.646555819235906064E-16, 2.500000000000000000 ) ) ;
#711 = SURFACE_STYLE_FILL_AREA ( #104 ) ;
#712 = PRESENTATION_LAYER_ASSIGNMENT (  '', '', ( #578 ) ) ;
#713 = FILL_AREA_STYLE ('',( #607 ) ) ;
#714 = VERTEX_POINT ( 'NONE', #596 ) ;
#715 = CARTESIAN_POINT ( 'NONE',  ( 3.450000000000000622, 0.000000000000000000, 2.500000000000000000 ) ) ;
#716 = STYLED_ITEM ( 'NONE', ( #552 ), #487 ) ;
#717 = DIRECTION ( 'NONE',  ( -0.000000000000000000, -0.000000000000000000, -1.000000000000000000 ) ) ;
#718 = VECTOR ( 'NONE', #115, 1000.000000000000000 ) ;
#719 = DIRECTION ( 'NONE',  ( -3.614007241618345813E-16, 1.000000000000000000, 0.000000000000000000 ) ) ;
#720 = CARTESIAN_POINT ( 'NONE',  ( 3.450000000000001066, 0.3999999999999989675, -2.500000000000000000 ) ) ;
#721 = LINE ( 'NONE', #819, #723 ) ;
#722 = PRESENTATION_LAYER_ASSIGNMENT (  '', '', ( #1 ) ) ;
#723 = VECTOR ( 'NONE', #510, 1000.000000000000000 ) ;
#724 = VECTOR ( 'NONE', #36, 1000.000000000000000 ) ;
#725 = DIRECTION ( 'NONE',  ( -0.000000000000000000, -0.000000000000000000, -1.000000000000000000 ) ) ;
#726 = SURFACE_STYLE_FILL_AREA ( #186 ) ;
#727 = CARTESIAN_POINT ( 'NONE',  ( -3.450000000000001510, 1.599999999999999867, -2.500000000000000000 ) ) ;
#728 = COLOUR_RGB ( '',1.000000000000000000, 1.000000000000000000, 1.000000000000000000 ) ;
#729 = FACE_OUTER_BOUND ( 'NONE', #530, .T. ) ;
#730 = DIRECTION ( 'NONE',  ( -1.000000000000000000, -1.840757888321918559E-16, 0.000000000000000000 ) ) ;
#731 = LINE ( 'NONE', #105, #218 ) ;
#732 = DIRECTION ( 'NONE',  ( 1.000000000000000000, 1.840757888321918805E-16, 0.000000000000000000 ) ) ;
#733 =( LENGTH_UNIT ( ) NAMED_UNIT ( * ) SI_UNIT ( .MILLI., .METRE. ) );
#734 = SURFACE_SIDE_STYLE ('',( #521 ) ) ;
#735 = CARTESIAN_POINT ( 'NONE',  ( 2.449999999999999734, 0.3999999999999991340, 2.500000000000000000 ) ) ;
#736 = ADVANCED_FACE ( 'NONE', ( #563 ), #87, .F. ) ;
#737 = ORIENTED_EDGE ( 'NONE', *, *, #349, .F. ) ;
#738 = SURFACE_STYLE_USAGE ( .BOTH. , #176 ) ;
#739 = ORIENTED_EDGE ( 'NONE', *, *, #479, .T. ) ;
#740 =( LENGTH_UNIT ( ) NAMED_UNIT ( * ) SI_UNIT ( .MILLI., .METRE. ) );
#741 = VECTOR ( 'NONE', #63, 1000.000000000000000 ) ;
#742 = AXIS2_PLACEMENT_3D ( 'NONE', #8, #128, #197 ) ;
#743 = SURFACE_SIDE_STYLE ('',( #276 ) ) ;
#744 = ADVANCED_FACE ( 'NONE', ( #13 ), #651, .F. ) ;
#745 = VERTEX_POINT ( 'NONE', #131 ) ;
#746 = CARTESIAN_POINT ( 'NONE',  ( -2.449999999999999734, 0.3999999999999990785, -2.500000000000000000 ) ) ;
#747 = AXIS2_PLACEMENT_3D ( 'NONE', #320, #490, #234 ) ;
#748 = VECTOR ( 'NONE', #666, 1000.000000000000000 ) ;
#749 = PLANE ( 'NONE',  #272 ) ;
#750 = CIRCLE ( 'NONE', #455, 0.3999999999999988565 ) ;
#751 = ORIENTED_EDGE ( 'NONE', *, *, #210, .F. ) ;
#752 = ORIENTED_EDGE ( 'NONE', *, *, #687, .T. ) ;
#753 = FILL_AREA_STYLE ('',( #58 ) ) ;
#754 = LINE ( 'NONE', #194, #209 ) ;
#755 = AXIS2_PLACEMENT_3D ( 'NONE', #12, #823, #113 ) ;
#756 = FACE_OUTER_BOUND ( 'NONE', #238, .T. ) ;
#757 = PRESENTATION_STYLE_ASSIGNMENT (( #615 ) ) ;
#758 = ORIENTED_EDGE ( 'NONE', *, *, #432, .F. ) ;
#759 = COLOUR_RGB ( '',1.000000000000000000, 1.000000000000000000, 1.000000000000000000 ) ;
#760 =( LENGTH_UNIT ( ) NAMED_UNIT ( * ) SI_UNIT ( .MILLI., .METRE. ) );
#761 = EDGE_CURVE ( 'NONE', #561, #146, #290, .T. ) ;
#762 = ADVANCED_FACE ( 'NONE', ( #586 ), #406, .F. ) ;
#763 = FACE_OUTER_BOUND ( 'NONE', #705, .T. ) ;
#764 = PRODUCT_DEFINITION_CONTEXT ( 'detailed design', #683, 'design' ) ;
#765 = ORIENTED_EDGE ( 'NONE', *, *, #761, .T. ) ;
#766 = PLANE ( 'NONE',  #742 ) ;
#767 = EDGE_CURVE ( 'NONE', #561, #369, #11, .T. ) ;
#768 = DIRECTION ( 'NONE',  ( -2.065146995210484448E-16, -1.000000000000000000, -0.000000000000000000 ) ) ;
#769 = LINE ( 'NONE', #496, #777 ) ;
#770 = ORIENTED_EDGE ( 'NONE', *, *, #207, .F. ) ;
#771 = DIRECTION ( 'NONE',  ( 0.000000000000000000, -0.000000000000000000, -1.000000000000000000 ) ) ;
#772 = VERTEX_POINT ( 'NONE', #668 ) ;
#773 = PRESENTATION_STYLE_ASSIGNMENT (( #130 ) ) ;
#774 = DIRECTION ( 'NONE',  ( -1.000000000000000000, 3.614007241618345813E-16, 0.000000000000000000 ) ) ;
#775 = ORIENTED_EDGE ( 'NONE', *, *, #418, .T. ) ;
#776 = CARTESIAN_POINT ( 'NONE',  ( 3.449999999999998845, 0.3999999999999999112, 3.000000000000000000 ) ) ;
#777 = VECTOR ( 'NONE', #690, 1000.000000000000000 ) ;
#778 = CARTESIAN_POINT ( 'NONE',  ( -3.450000000000001066, 4.599999999999999645, 3.000000000000000000 ) ) ;
#779 = AXIS2_PLACEMENT_3D ( 'NONE', #140, #473, #363 ) ;
#780 = EDGE_CURVE ( 'NONE', #772, #101, #571, .T. ) ;
#781 = CARTESIAN_POINT ( 'NONE',  ( -2.849999999999999201, -5.421010862427522170E-17, -2.500000000000000000 ) ) ;
#782 = VERTEX_POINT ( 'NONE', #674 ) ;
#783 = LINE ( 'NONE', #746, #248 ) ;
#784 = VERTEX_POINT ( 'NONE', #62 ) ;
#785 = UNCERTAINTY_MEASURE_WITH_UNIT (LENGTH_MEASURE( 1.000000000000000082E-05 ), #477, 'distance_accuracy_value', 'NONE');
#786 = PLANE ( 'NONE',  #67 ) ;
#787 = SURFACE_STYLE_FILL_AREA ( #655 ) ;
#788 = ORIENTED_EDGE ( 'NONE', *, *, #542, .F. ) ;
#789 = FACE_OUTER_BOUND ( 'NONE', #250, .T. ) ;
#790 = AXIS2_PLACEMENT_3D ( 'NONE', #478, #199, #202 ) ;
#791 = EDGE_LOOP ( 'NONE', ( #539, #291, #665, #271 ) ) ;
#792 = DIRECTION ( 'NONE',  ( -0.000000000000000000, -0.000000000000000000, -1.000000000000000000 ) ) ;
#793 = CARTESIAN_POINT ( 'NONE',  ( 2.449999999999999734, 0.3999999999999991340, 2.500000000000000000 ) ) ;
#794 = COLOUR_RGB ( '',1.000000000000000000, 1.000000000000000000, 1.000000000000000000 ) ;
#795 = SURFACE_STYLE_USAGE ( .BOTH. , #622 ) ;
#796 = PRESENTATION_STYLE_ASSIGNMENT (( #499 ) ) ;
#797 = DIRECTION ( 'NONE',  ( 0.000000000000000000, -1.000000000000000000, 0.000000000000000000 ) ) ;
#798 = FACE_OUTER_BOUND ( 'NONE', #654, .T. ) ;
#799 = ORIENTED_EDGE ( 'NONE', *, *, #303, .T. ) ;
#800 = DIRECTION ( 'NONE',  ( -0.000000000000000000, -0.000000000000000000, -1.000000000000000000 ) ) ;
#801 = CARTESIAN_POINT ( 'NONE',  ( -3.450000000000001954, 0.3999999999999990785, 3.000000000000000000 ) ) ;
#802 = FACE_OUTER_BOUND ( 'NONE', #112, .T. ) ;
#803 = CARTESIAN_POINT ( 'NONE',  ( 2.849999999999999201, 0.3999999999999991340, -2.500000000000000000 ) ) ;
#804 = VECTOR ( 'NONE', #533, 1000.000000000000000 ) ;
#805 = PRODUCT_DEFINITION_SHAPE ( 'NONE', 'NONE',  #469 ) ;
#806 = CARTESIAN_POINT ( 'NONE',  ( 2.449999999999999734, 0.3999999999999990785, -2.500000000000000000 ) ) ;
#807 = EDGE_CURVE ( 'NONE', #309, #672, #576, .T. ) ;
#808 = DIRECTION ( 'NONE',  ( 0.000000000000000000, -1.000000000000000000, 0.000000000000000000 ) ) ;
#809 = ORIENTED_EDGE ( 'NONE', *, *, #183, .F. ) ;
#810 = CARTESIAN_POINT ( 'NONE',  ( -2.449999999999999734, 0.3999999999999991340, 2.500000000000000000 ) ) ;
#811 = EDGE_LOOP ( 'NONE', ( #814, #80, #9, #752 ) ) ;
#812 = DIRECTION ( 'NONE',  ( -1.000000000000000000, -0.000000000000000000, -0.000000000000000000 ) ) ;
#813 = CIRCLE ( 'NONE', #755, 0.3999999999999988565 ) ;
#814 = ORIENTED_EDGE ( 'NONE', *, *, #136, .T. ) ;
#815 =( NAMED_UNIT ( * ) PLANE_ANGLE_UNIT ( ) SI_UNIT ( $, .RADIAN. ) );
#816 = ORIENTED_EDGE ( 'NONE', *, *, #625, .F. ) ;
#817 = FACE_OUTER_BOUND ( 'NONE', #247, .T. ) ;
#818 = ORIENTED_EDGE ( 'NONE', *, *, #687, .F. ) ;
#819 = CARTESIAN_POINT ( 'NONE',  ( 3.850000000000000089, 1.599999999999999867, -2.500000000000000000 ) ) ;
#820 = DIRECTION ( 'NONE',  ( -1.000000000000000000, 0.000000000000000000, -0.000000000000000000 ) ) ;
#821 = VECTOR ( 'NONE', #483, 1000.000000000000000 ) ;
#822 = LINE ( 'NONE', #338, #266 ) ;
#823 = DIRECTION ( 'NONE',  ( 0.000000000000000000, 0.000000000000000000, 1.000000000000000000 ) ) ;
#824 = ORIENTED_EDGE ( 'NONE', *, *, #68, .F. ) ;
#825 =( LENGTH_UNIT ( ) NAMED_UNIT ( * ) SI_UNIT ( .MILLI., .METRE. ) );
#826 = CARTESIAN_POINT ( 'NONE',  ( -3.450000000000001066, 0.3999999999999989675, 2.500000000000000000 ) ) ;
#827 = LINE ( 'NONE', #458, #251 ) ;
#828 = SURFACE_STYLE_USAGE ( .BOTH. , #743 ) ;
ENDSEC;
END-ISO-10303-21;
