ISO-10303-21;
HEADER;
FILE_DESCRIPTION (( 'STEP AP203' ),
    '1' );
FILE_NAME ('91477A123_18-8 Stainless Steel Spring Lock Washer.STEP',
    '2026-05-11T19:09:38',
    ( 'McMaster Carr Supply' ),
    ( 'McMaster Carr Supply' ),
    'SwSTEP 2.0',
    'SolidWorks 2024',
    '' );
FILE_SCHEMA (( 'CONFIG_CONTROL_DESIGN' ));
ENDSEC;

DATA;
#1 = CONICAL_SURFACE ( 'NONE', #224, 5.500000000000000000, 1.416638948998077074 ) ;
#2 = EDGE_CURVE ( 'NONE', #100, #177, #269, .T. ) ;
#3 = VECTOR ( 'NONE', #259, 1000.000000000000000 ) ;
#4 = APPROVAL_DATE_TIME ( #170, #278 ) ;
#5 = PERSON_AND_ORGANIZATION ( #19, #277 ) ;
#6 = AXIS2_PLACEMENT_3D ( 'NONE', #107, #62, #83 ) ;
#7 = CC_DESIGN_PERSON_AND_ORGANIZATION_ASSIGNMENT ( #89, #111, ( #253 ) ) ;
#8 = CC_DESIGN_APPROVAL ( #278, ( #253 ) ) ;
#9 = ORIENTED_EDGE ( 'NONE', *, *, #143, .T. ) ;
#10 = AXIS2_PLACEMENT_3D ( 'NONE', #139, #17, #76 ) ;
#11 = VERTEX_POINT ( 'NONE', #35 ) ;
#12 = PRODUCT ( '91477A123_18-8 Stainless Steel Spring Lock Washer', '91477A123_18-8 Stainless Steel Spring Lock Washer', '', ( #246 ) ) ;
#13 = DESIGN_CONTEXT ( 'detailed design', #229, 'design' ) ;
#14 = DIRECTION ( 'NONE',  ( 0.000000000000000000, -0.1535475241309593730, -0.9881412641081499526 ) ) ;
#15 = EDGE_CURVE ( 'NONE', #11, #273, #85, .T. ) ;
#16 = ORIENTED_EDGE ( 'NONE', *, *, #123, .T. ) ;
#17 = DIRECTION ( 'NONE',  ( -0.000000000000000000, -1.000000000000000000, -0.000000000000000000 ) ) ;
#18 = EDGE_CURVE ( 'NONE', #273, #28, #33, .T. ) ;
#19 = PERSON ( 'UNSPECIFIED', 'UNSPECIFIED', 'UNSPECIFIED', ('UNSPECIFIED'), ('UNSPECIFIED'), ('UNSPECIFIED') ) ;
#20 = LINE ( 'NONE', #22, #96 ) ;
#21 = CARTESIAN_POINT ( 'NONE',  ( 6.622732504944053767E-16, 1.154505907107611362E-15, -5.315742971042848986 ) ) ;
#22 = CARTESIAN_POINT ( 'NONE',  ( 6.509907614577666497E-16, 1.154505907107611362E-15, -5.315742971042848986 ) ) ;
#23 = DIRECTION ( 'NONE',  ( 0.000000000000000000, 0.000000000000000000, -1.000000000000000000 ) ) ;
#24 = ADVANCED_FACE ( 'NONE', ( #98 ), #43, .F. ) ;
#25 = CARTESIAN_POINT ( 'NONE',  ( 0.000000000000000000, 1.154505907107611362E-15, 5.315742971042848986 ) ) ;
#26 = DATE_AND_TIME ( #216, #176 ) ;
#27 = ADVANCED_FACE ( 'NONE', ( #158 ), #105, .F. ) ;
#28 = VERTEX_POINT ( 'NONE', #34 ) ;
#29 = APPLICATION_PROTOCOL_DEFINITION ( 'international standard', 'config_control_design', 1994, #213 ) ;
#30 = APPROVAL_PERSON_ORGANIZATION ( #49, #54, #134 ) ;
#31 = DATE_AND_TIME ( #91, #63 ) ;
#32 = PERSON_AND_ORGANIZATION ( #19, #277 ) ;
#33 = LINE ( 'NONE', #200, #283 ) ;
#34 = CARTESIAN_POINT ( 'NONE',  ( 0.000000000000000000, 1.185769516929780831, -5.500000000000000000 ) ) ;
#35 = CARTESIAN_POINT ( 'NONE',  ( 5.103260596891852249E-16, 1.600000000000000977, 2.834257028957151814 ) ) ;
#36 = ORIENTED_EDGE ( 'NONE', *, *, #244, .F. ) ;
#37 = ORIENTED_EDGE ( 'NONE', *, *, #172, .T. ) ;
#38 = CARTESIAN_POINT ( 'NONE',  ( 0.000000000000000000, 1.600000000000000977, 2.834257028957151814 ) ) ;
#39 = CARTESIAN_POINT ( 'NONE',  ( 3.245314017740485962E-16, 0.4142304830702214224, 2.649999999999999911 ) ) ;
#40 = VECTOR ( 'NONE', #41, 1000.000000000000114 ) ;
#41 = DIRECTION ( 'NONE',  ( 1.880414839439811049E-17, 0.9881412641081497306, -0.1535475241309599559 ) ) ;
#42 = LOCAL_TIME ( 14, 9, 38.00000000000000000, #194 ) ;
#43 = CONICAL_SURFACE ( 'NONE', #235, 2.649999999999999911, 1.416638948998077074 ) ;
#44 = FACE_OUTER_BOUND ( 'NONE', #102, .T. ) ;
#45 = CARTESIAN_POINT ( 'NONE',  ( 0.000000000000000000, 1.600000000000000977, 0.000000000000000000 ) ) ;
#46 = VECTOR ( 'NONE', #286, 1000.000000000000000 ) ;
#47 = DATE_TIME_ROLE ( 'classification_date' ) ;
#48 =( NAMED_UNIT ( * ) PLANE_ANGLE_UNIT ( ) SI_UNIT ( $, .RADIAN. ) );
#49 = PERSON_AND_ORGANIZATION ( #19, #277 ) ;
#50 = COORDINATED_UNIVERSAL_TIME_OFFSET ( 6, 0, .BEHIND. ) ;
#51 = EDGE_CURVE ( 'NONE', #177, #100, #272, .T. ) ;
#52 = ORIENTED_EDGE ( 'NONE', *, *, #18, .F. ) ;
#53 = CONICAL_SURFACE ( 'NONE', #261, 5.500000000000000000, 1.416638948998077074 ) ;
#54 = APPROVAL ( #66, 'UNSPECIFIED' ) ;
#55 = CARTESIAN_POINT ( 'NONE',  ( 0.000000000000000000, 0.4142304830702214224, 0.000000000000000000 ) ) ;
#56 = EDGE_LOOP ( 'NONE', ( #57, #140, #16, #133 ) ) ;
#57 = ORIENTED_EDGE ( 'NONE', *, *, #2, .F. ) ;
#58 = DIRECTION ( 'NONE',  ( 1.210124036195465200E-16, -0.1535475241309593730, 0.9881412641081499526 ) ) ;
#59 = DIRECTION ( 'NONE',  ( 0.000000000000000000, 0.000000000000000000, 1.000000000000000000 ) ) ;
#60 = DIRECTION ( 'NONE',  ( -0.000000000000000000, -1.000000000000000000, -0.000000000000000000 ) ) ;
#61 = EDGE_CURVE ( 'NONE', #177, #276, #117, .T. ) ;
#62 = DIRECTION ( 'NONE',  ( 0.000000000000000000, 1.000000000000000000, 0.000000000000000000 ) ) ;
#63 = LOCAL_TIME ( 14, 9, 38.00000000000000000, #175 ) ;
#64 = DIRECTION ( 'NONE',  ( 0.000000000000000000, 0.9881412641081497306, 0.1535475241309599559 ) ) ;
#65 = DIRECTION ( 'NONE',  ( 1.000000000000000000, 0.000000000000000000, 0.000000000000000000 ) ) ;
#66 = APPROVAL_STATUS ( 'not_yet_approved' ) ;
#67 = ORIENTED_EDGE ( 'NONE', *, *, #2, .T. ) ;
#68 = PERSON_AND_ORGANIZATION ( #19, #277 ) ;
#69 = APPROVAL_DATE_TIME ( #26, #153 ) ;
#70 =( NAMED_UNIT ( * ) SI_UNIT ( $, .STERADIAN. ) SOLID_ANGLE_UNIT ( ) );
#71 = EDGE_CURVE ( 'NONE', #276, #205, #112, .T. ) ;
#72 = AXIS2_PLACEMENT_3D ( 'NONE', #148, #207, #59 ) ;
#73 = ORIENTED_EDGE ( 'NONE', *, *, #211, .T. ) ;
#74 = ORIENTED_EDGE ( 'NONE', *, *, #51, .T. ) ;
#75 = PRODUCT_DEFINITION_SHAPE ( 'NONE', 'NONE',  #253 ) ;
#76 = DIRECTION ( 'NONE',  ( 0.000000000000000000, 0.000000000000000000, -1.000000000000000000 ) ) ;
#77 = EDGE_CURVE ( 'NONE', #28, #218, #233, .T. ) ;
#78 = DIRECTION ( 'NONE',  ( -0.000000000000000000, -1.000000000000000000, -0.000000000000000000 ) ) ;
#79 = DIRECTION ( 'NONE',  ( -0.000000000000000000, -1.000000000000000000, -0.000000000000000000 ) ) ;
#80 = CLOSED_SHELL ( 'NONE', ( #118, #24, #209, #206, #120, #135, #27, #146 ) ) ;
#81 = ORIENTED_EDGE ( 'NONE', *, *, #99, .T. ) ;
#82 = LINE ( 'NONE', #152, #40 ) ;
#83 = DIRECTION ( 'NONE',  ( 0.000000000000000000, 0.000000000000000000, 1.000000000000000000 ) ) ;
#84 = VECTOR ( 'NONE', #58, 1000.000000000000000 ) ;
#85 = CIRCLE ( 'NONE', #240, 2.834257028957151814 ) ;
#86 = DIRECTION ( 'NONE',  ( -0.000000000000000000, -1.000000000000000000, -0.000000000000000000 ) ) ;
#87 = DIRECTION ( 'NONE',  ( -0.000000000000000000, -1.000000000000000000, -0.000000000000000000 ) ) ;
#88 = SECURITY_CLASSIFICATION ( '', '', #219 ) ;
#89 = PERSON_AND_ORGANIZATION ( #19, #277 ) ;
#90 = ORIENTED_EDGE ( 'NONE', *, *, #143, .F. ) ;
#91 = CALENDAR_DATE ( 2026, 11, 5 ) ;
#92 = DATE_AND_TIME ( #114, #42 ) ;
#93 = CC_DESIGN_DATE_AND_TIME_ASSIGNMENT ( #92, #47, ( #88 ) ) ;
#94 = AXIS2_PLACEMENT_3D ( 'NONE', #212, #60, #214 ) ;
#95 = AXIS2_PLACEMENT_3D ( 'NONE', #55, #141, #226 ) ;
#96 = VECTOR ( 'NONE', #104, 1000.000000000000000 ) ;
#97 = APPROVAL_PERSON_ORGANIZATION ( #68, #278, #113 ) ;
#98 = FACE_OUTER_BOUND ( 'NONE', #56, .T. ) ;
#99 = EDGE_CURVE ( 'NONE', #100, #11, #106, .T. ) ;
#100 = VERTEX_POINT ( 'NONE', #190 ) ;
#101 = CARTESIAN_POINT ( 'NONE',  ( 0.000000000000000000, 1.154505907107611362E-15, 0.000000000000000000 ) ) ;
#102 = EDGE_LOOP ( 'NONE', ( #37, #251, #204, #52 ) ) ;
#103 = EDGE_LOOP ( 'NONE', ( #122, #73, #115, #239 ) ) ;
#104 = DIRECTION ( 'NONE',  ( 1.880414839439802421E-17, 0.9881412641081499526, -0.1535475241309592620 ) ) ;
#105 = CONICAL_SURFACE ( 'NONE', #287, 2.649999999999999911, 1.416638948998077074 ) ;
#106 = LINE ( 'NONE', #38, #282 ) ;
#107 = CARTESIAN_POINT ( 'NONE',  ( 0.000000000000000000, 1.600000000000000977, 0.000000000000000000 ) ) ;
#108 = FACE_OUTER_BOUND ( 'NONE', #103, .T. ) ;
#109 = LINE ( 'NONE', #25, #46 ) ;
#110 = LOCAL_TIME ( 14, 9, 38.00000000000000000, #50 ) ;
#111 = PERSON_AND_ORGANIZATION_ROLE ( 'creator' ) ;
#112 = CIRCLE ( 'NONE', #257, 5.315742971042848986 ) ;
#113 = APPROVAL_ROLE ( '' ) ;
#114 = CALENDAR_DATE ( 2026, 11, 5 ) ;
#115 = ORIENTED_EDGE ( 'NONE', *, *, #77, .T. ) ;
#116 = EDGE_LOOP ( 'NONE', ( #228, #280, #163, #179 ) ) ;
#117 = LINE ( 'NONE', #203, #199 ) ;
#118 = ADVANCED_FACE ( 'NONE', ( #256 ), #245, .F. ) ;
#119 = CARTESIAN_POINT ( 'NONE',  ( 0.000000000000000000, 1.600000000000000977, 0.000000000000000000 ) ) ;
#120 = ADVANCED_FACE ( 'NONE', ( #124 ), #1, .T. ) ;
#121 = PRODUCT_DEFINITION_FORMATION_WITH_SPECIFIED_SOURCE ( 'ANY', '', #12, .NOT_KNOWN. ) ;
#122 = ORIENTED_EDGE ( 'NONE', *, *, #71, .F. ) ;
#123 = EDGE_CURVE ( 'NONE', #205, #276, #129, .T. ) ;
#124 = FACE_OUTER_BOUND ( 'NONE', #217, .T. ) ;
#125 = CARTESIAN_POINT ( 'NONE',  ( 0.000000000000000000, 1.154505907107611362E-15, 0.000000000000000000 ) ) ;
#126 = CARTESIAN_POINT ( 'NONE',  ( 0.000000000000000000, 1.185769516929780831, 0.000000000000000000 ) ) ;
#127 = DIRECTION ( 'NONE',  ( -0.000000000000000000, -1.000000000000000000, -0.000000000000000000 ) ) ;
#128 = CONICAL_SURFACE ( 'NONE', #6, 2.834257028957151814, 0.1541573777968201220 ) ;
#129 = CIRCLE ( 'NONE', #260, 5.315742971042848986 ) ;
#130 = APPROVAL_STATUS ( 'not_yet_approved' ) ;
#131 = ADVANCED_BREP_SHAPE_REPRESENTATION ( '91477A123_18-8 Stainless Steel Spring Lock Washer', ( #222, #288 ), #160 ) ;
#132 = ORIENTED_EDGE ( 'NONE', *, *, #192, .F. ) ;
#133 = ORIENTED_EDGE ( 'NONE', *, *, #61, .F. ) ;
#134 = APPROVAL_ROLE ( '' ) ;
#135 = ADVANCED_FACE ( 'NONE', ( #262 ), #198, .T. ) ;
#136 = CALENDAR_DATE ( 2026, 11, 5 ) ;
#137 = CC_DESIGN_APPROVAL ( #54, ( #121 ) ) ;
#138 = APPROVAL_DATE_TIME ( #31, #54 ) ;
#139 = CARTESIAN_POINT ( 'NONE',  ( 0.000000000000000000, 0.4142304830702214224, 0.000000000000000000 ) ) ;
#140 = ORIENTED_EDGE ( 'NONE', *, *, #244, .T. ) ;
#141 = DIRECTION ( 'NONE',  ( -0.000000000000000000, -1.000000000000000000, -0.000000000000000000 ) ) ;
#142 = ORIENTED_EDGE ( 'NONE', *, *, #99, .F. ) ;
#143 = EDGE_CURVE ( 'NONE', #177, #273, #82, .T. ) ;
#144 = EDGE_LOOP ( 'NONE', ( #67, #9, #279, #142 ) ) ;
#145 = DIRECTION ( 'NONE',  ( 0.000000000000000000, 0.000000000000000000, 1.000000000000000000 ) ) ;
#146 = ADVANCED_FACE ( 'NONE', ( #166 ), #128, .F. ) ;
#147 = DIRECTION ( 'NONE',  ( 0.000000000000000000, 0.000000000000000000, -1.000000000000000000 ) ) ;
#148 = CARTESIAN_POINT ( 'NONE',  ( 0.000000000000000000, 1.154505907107611362E-15, 0.000000000000000000 ) ) ;
#149 = CONICAL_SURFACE ( 'NONE', #249, 5.315742971042848986, 0.1541573777968194281 ) ;
#150 = DIRECTION ( 'NONE',  ( 0.000000000000000000, 0.000000000000000000, -1.000000000000000000 ) ) ;
#151 = LOCAL_TIME ( 14, 9, 38.00000000000000000, #193 ) ;
#152 = CARTESIAN_POINT ( 'NONE',  ( 3.470963798473263460E-16, 1.600000000000000977, -2.834257028957151814 ) ) ;
#153 = APPROVAL ( #130, 'UNSPECIFIED' ) ;
#154 = PERSON_AND_ORGANIZATION ( #19, #277 ) ;
#155 = APPROVAL_STATUS ( 'not_yet_approved' ) ;
#156 = DIRECTION ( 'NONE',  ( 0.000000000000000000, 0.000000000000000000, 1.000000000000000000 ) ) ;
#157 = ORIENTED_EDGE ( 'NONE', *, *, #61, .T. ) ;
#158 = FACE_OUTER_BOUND ( 'NONE', #178, .T. ) ;
#159 = DIRECTION ( 'NONE',  ( 0.000000000000000000, 0.000000000000000000, -1.000000000000000000 ) ) ;
#160 =( GEOMETRIC_REPRESENTATION_CONTEXT ( 3 ) GLOBAL_UNCERTAINTY_ASSIGNED_CONTEXT ( ( #255 ) ) GLOBAL_UNIT_ASSIGNED_CONTEXT ( ( #210, #48, #70 ) ) REPRESENTATION_CONTEXT ( 'NONE', 'WORKASPACE' ) );
#161 = CC_DESIGN_PERSON_AND_ORGANIZATION_ASSIGNMENT ( #32, #237, ( #88 ) ) ;
#162 = DIRECTION ( 'NONE',  ( 0.000000000000000000, 0.000000000000000000, -1.000000000000000000 ) ) ;
#163 = ORIENTED_EDGE ( 'NONE', *, *, #186, .T. ) ;
#164 = CARTESIAN_POINT ( 'NONE',  ( 6.735557395310442023E-16, 1.185769516929780831, 5.500000000000000000 ) ) ;
#165 = DIRECTION ( 'NONE',  ( 0.000000000000000000, 0.000000000000000000, -1.000000000000000000 ) ) ;
#166 = FACE_OUTER_BOUND ( 'NONE', #197, .T. ) ;
#167 = CARTESIAN_POINT ( 'NONE',  ( 0.000000000000000000, 1.185769516929780831, 0.000000000000000000 ) ) ;
#168 = CC_DESIGN_PERSON_AND_ORGANIZATION_ASSIGNMENT ( #5, #173, ( #12 ) ) ;
#169 = DIRECTION ( 'NONE',  ( -0.000000000000000000, -1.000000000000000000, -0.000000000000000000 ) ) ;
#170 = DATE_AND_TIME ( #195, #110 ) ;
#171 = ORIENTED_EDGE ( 'NONE', *, *, #71, .T. ) ;
#172 = EDGE_CURVE ( 'NONE', #273, #11, #243, .T. ) ;
#173 = PERSON_AND_ORGANIZATION_ROLE ( 'design_owner' ) ;
#174 = APPROVAL_ROLE ( '' ) ;
#175 = COORDINATED_UNIVERSAL_TIME_OFFSET ( 6, 0, .BEHIND. ) ;
#176 = LOCAL_TIME ( 14, 9, 38.00000000000000000, #270 ) ;
#177 = VERTEX_POINT ( 'NONE', #234 ) ;
#178 = EDGE_LOOP ( 'NONE', ( #36, #181, #157, #171 ) ) ;
#179 = ORIENTED_EDGE ( 'NONE', *, *, #188, .T. ) ;
#180 = APPROVAL_PERSON_ORGANIZATION ( #154, #153, #174 ) ;
#181 = ORIENTED_EDGE ( 'NONE', *, *, #51, .F. ) ;
#182 = DIRECTION ( 'NONE',  ( 0.000000000000000000, 0.000000000000000000, -1.000000000000000000 ) ) ;
#183 = CARTESIAN_POINT ( 'NONE',  ( 6.735557395310442023E-16, 1.185769516929780831, 5.500000000000000000 ) ) ;
#184 = AXIS2_PLACEMENT_3D ( 'NONE', #281, #87, #165 ) ;
#185 = DIRECTION ( 'NONE',  ( 0.000000000000000000, 1.000000000000000000, 0.000000000000000000 ) ) ;
#186 = EDGE_CURVE ( 'NONE', #205, #218, #109, .T. ) ;
#187 = LINE ( 'NONE', #164, #84 ) ;
#188 = EDGE_CURVE ( 'NONE', #218, #28, #201, .T. ) ;
#189 = CARTESIAN_POINT ( 'NONE',  ( 0.000000000000000000, 1.154505907107611362E-15, 0.000000000000000000 ) ) ;
#190 = CARTESIAN_POINT ( 'NONE',  ( 4.877610816159076722E-16, 0.4142304830702214224, 2.649999999999999911 ) ) ;
#191 = DATE_TIME_ROLE ( 'creation_date' ) ;
#192 = EDGE_CURVE ( 'NONE', #11, #218, #187, .T. ) ;
#193 = COORDINATED_UNIVERSAL_TIME_OFFSET ( 6, 0, .BEHIND. ) ;
#194 = COORDINATED_UNIVERSAL_TIME_OFFSET ( 6, 0, .BEHIND. ) ;
#195 = CALENDAR_DATE ( 2026, 11, 5 ) ;
#196 = CC_DESIGN_PERSON_AND_ORGANIZATION_ASSIGNMENT ( #241, #221, ( #121 ) ) ;
#197 = EDGE_LOOP ( 'NONE', ( #90, #74, #81, #247 ) ) ;
#198 = CONICAL_SURFACE ( 'NONE', #72, 5.315742971042848986, 0.1541573777968194281 ) ;
#199 = VECTOR ( 'NONE', #14, 1000.000000000000000 ) ;
#200 = CARTESIAN_POINT ( 'NONE',  ( 0.000000000000000000, 1.185769516929780831, -5.500000000000000000 ) ) ;
#201 = CIRCLE ( 'NONE', #184, 5.500000000000000000 ) ;
#202 = ORIENTED_EDGE ( 'NONE', *, *, #15, .T. ) ;
#203 = CARTESIAN_POINT ( 'NONE',  ( 0.000000000000000000, 0.4142304830702214224, -2.649999999999999911 ) ) ;
#204 = ORIENTED_EDGE ( 'NONE', *, *, #77, .F. ) ;
#205 = VERTEX_POINT ( 'NONE', #236 ) ;
#206 = ADVANCED_FACE ( 'NONE', ( #44 ), #53, .T. ) ;
#207 = DIRECTION ( 'NONE',  ( 0.000000000000000000, 1.000000000000000000, 0.000000000000000000 ) ) ;
#208 = CARTESIAN_POINT ( 'NONE',  ( 0.000000000000000000, 1.600000000000000977, -2.834257028957151814 ) ) ;
#209 = ADVANCED_FACE ( 'NONE', ( #108 ), #149, .T. ) ;
#210 =( LENGTH_UNIT ( ) NAMED_UNIT ( * ) SI_UNIT ( .MILLI., .METRE. ) );
#211 = EDGE_CURVE ( 'NONE', #276, #28, #20, .T. ) ;
#212 = CARTESIAN_POINT ( 'NONE',  ( 0.000000000000000000, 1.600000000000000977, 0.000000000000000000 ) ) ;
#213 = APPLICATION_CONTEXT ( 'configuration controlled 3d designs of mechanical parts and assemblies' ) ;
#214 = DIRECTION ( 'NONE',  ( 0.000000000000000000, 0.000000000000000000, -1.000000000000000000 ) ) ;
#215 = CC_DESIGN_APPROVAL ( #153, ( #88 ) ) ;
#216 = CALENDAR_DATE ( 2026, 11, 5 ) ;
#217 = EDGE_LOOP ( 'NONE', ( #132, #202, #227, #252 ) ) ;
#218 = VERTEX_POINT ( 'NONE', #183 ) ;
#219 = SECURITY_CLASSIFICATION_LEVEL ( 'unclassified' ) ;
#220 = CC_DESIGN_SECURITY_CLASSIFICATION ( #88, ( #121 ) ) ;
#221 = PERSON_AND_ORGANIZATION_ROLE ( 'creator' ) ;
#222 = MANIFOLD_SOLID_BREP ( 'Revolve1', #80 ) ;
#223 = DIRECTION ( 'NONE',  ( -0.000000000000000000, -1.000000000000000000, -0.000000000000000000 ) ) ;
#224 = AXIS2_PLACEMENT_3D ( 'NONE', #284, #169, #258 ) ;
#225 = DIRECTION ( 'NONE',  ( 0.000000000000000000, 0.000000000000000000, -1.000000000000000000 ) ) ;
#226 = DIRECTION ( 'NONE',  ( 0.000000000000000000, 0.000000000000000000, -1.000000000000000000 ) ) ;
#227 = ORIENTED_EDGE ( 'NONE', *, *, #18, .T. ) ;
#228 = ORIENTED_EDGE ( 'NONE', *, *, #211, .F. ) ;
#229 = APPLICATION_CONTEXT ( 'configuration controlled 3d designs of mechanical parts and assemblies' ) ;
#230 = DIRECTION ( 'NONE',  ( 0.000000000000000000, 0.000000000000000000, 1.000000000000000000 ) ) ;
#231 = LINE ( 'NONE', #39, #3 ) ;
#232 = CC_DESIGN_DATE_AND_TIME_ASSIGNMENT ( #271, #191, ( #253 ) ) ;
#233 = CIRCLE ( 'NONE', #267, 5.500000000000000000 ) ;
#234 = CARTESIAN_POINT ( 'NONE',  ( 0.000000000000000000, 0.4142304830702214224, -2.649999999999999911 ) ) ;
#235 = AXIS2_PLACEMENT_3D ( 'NONE', #274, #78, #159 ) ;
#236 = CARTESIAN_POINT ( 'NONE',  ( 0.000000000000000000, 1.154505907107611362E-15, 5.315742971042848986 ) ) ;
#237 = PERSON_AND_ORGANIZATION_ROLE ( 'classification_officer' ) ;
#238 = PRODUCT_RELATED_PRODUCT_CATEGORY ( 'detail', '', ( #12 ) ) ;
#239 = ORIENTED_EDGE ( 'NONE', *, *, #186, .F. ) ;
#240 = AXIS2_PLACEMENT_3D ( 'NONE', #119, #223, #182 ) ;
#241 = PERSON_AND_ORGANIZATION ( #19, #277 ) ;
#242 = CARTESIAN_POINT ( 'NONE',  ( 0.000000000000000000, 0.000000000000000000, 0.000000000000000000 ) ) ;
#243 = CIRCLE ( 'NONE', #94, 2.834257028957151814 ) ;
#244 = EDGE_CURVE ( 'NONE', #100, #205, #231, .T. ) ;
#245 = CONICAL_SURFACE ( 'NONE', #254, 2.834257028957151814, 0.1541573777968201220 ) ;
#246 = MECHANICAL_CONTEXT ( 'NONE', #213, 'mechanical' ) ;
#247 = ORIENTED_EDGE ( 'NONE', *, *, #172, .F. ) ;
#248 = CARTESIAN_POINT ( 'NONE',  ( 0.000000000000000000, 0.4142304830702214224, 0.000000000000000000 ) ) ;
#249 = AXIS2_PLACEMENT_3D ( 'NONE', #189, #263, #145 ) ;
#250 = DIRECTION ( 'NONE',  ( -0.000000000000000000, -1.000000000000000000, -0.000000000000000000 ) ) ;
#251 = ORIENTED_EDGE ( 'NONE', *, *, #192, .T. ) ;
#252 = ORIENTED_EDGE ( 'NONE', *, *, #188, .F. ) ;
#253 = PRODUCT_DEFINITION ( 'UNKNOWN', '', #121, #13 ) ;
#254 = AXIS2_PLACEMENT_3D ( 'NONE', #45, #185, #230 ) ;
#255 = UNCERTAINTY_MEASURE_WITH_UNIT (LENGTH_MEASURE( 1.000000000000000082E-05 ), #210, 'distance_accuracy_value', 'NONE');
#256 = FACE_OUTER_BOUND ( 'NONE', #144, .T. ) ;
#257 = AXIS2_PLACEMENT_3D ( 'NONE', #101, #79, #162 ) ;
#258 = DIRECTION ( 'NONE',  ( 0.000000000000000000, 0.000000000000000000, -1.000000000000000000 ) ) ;
#259 = DIRECTION ( 'NONE',  ( 1.210124036195465200E-16, -0.1535475241309593730, 0.9881412641081499526 ) ) ;
#260 = AXIS2_PLACEMENT_3D ( 'NONE', #125, #127, #147 ) ;
#261 = AXIS2_PLACEMENT_3D ( 'NONE', #126, #285, #23 ) ;
#262 = FACE_OUTER_BOUND ( 'NONE', #116, .T. ) ;
#263 = DIRECTION ( 'NONE',  ( 0.000000000000000000, 1.000000000000000000, 0.000000000000000000 ) ) ;
#264 = PERSON_AND_ORGANIZATION_ROLE ( 'design_supplier' ) ;
#265 = CC_DESIGN_PERSON_AND_ORGANIZATION_ASSIGNMENT ( #268, #264, ( #121 ) ) ;
#266 = APPLICATION_PROTOCOL_DEFINITION ( 'international standard', 'config_control_design', 1994, #229 ) ;
#267 = AXIS2_PLACEMENT_3D ( 'NONE', #167, #86, #150 ) ;
#268 = PERSON_AND_ORGANIZATION ( #19, #277 ) ;
#269 = CIRCLE ( 'NONE', #10, 2.649999999999999911 ) ;
#270 = COORDINATED_UNIVERSAL_TIME_OFFSET ( 6, 0, .BEHIND. ) ;
#271 = DATE_AND_TIME ( #136, #151 ) ;
#272 = CIRCLE ( 'NONE', #95, 2.649999999999999911 ) ;
#273 = VERTEX_POINT ( 'NONE', #208 ) ;
#274 = CARTESIAN_POINT ( 'NONE',  ( 0.000000000000000000, 0.4142304830702214224, 0.000000000000000000 ) ) ;
#275 = DIRECTION ( 'NONE',  ( 0.000000000000000000, -0.1535475241309593730, -0.9881412641081499526 ) ) ;
#276 = VERTEX_POINT ( 'NONE', #21 ) ;
#277 = ORGANIZATION ( 'UNSPECIFIED', 'UNSPECIFIED', '' ) ;
#278 = APPROVAL ( #155, 'UNSPECIFIED' ) ;
#279 = ORIENTED_EDGE ( 'NONE', *, *, #15, .F. ) ;
#280 = ORIENTED_EDGE ( 'NONE', *, *, #123, .F. ) ;
#281 = CARTESIAN_POINT ( 'NONE',  ( 0.000000000000000000, 1.185769516929780831, 0.000000000000000000 ) ) ;
#282 = VECTOR ( 'NONE', #64, 1000.000000000000114 ) ;
#283 = VECTOR ( 'NONE', #275, 1000.000000000000000 ) ;
#284 = CARTESIAN_POINT ( 'NONE',  ( 0.000000000000000000, 1.185769516929780831, 0.000000000000000000 ) ) ;
#285 = DIRECTION ( 'NONE',  ( -0.000000000000000000, -1.000000000000000000, -0.000000000000000000 ) ) ;
#286 = DIRECTION ( 'NONE',  ( 0.000000000000000000, 0.9881412641081499526, 0.1535475241309592620 ) ) ;
#287 = AXIS2_PLACEMENT_3D ( 'NONE', #248, #250, #225 ) ;
#288 = AXIS2_PLACEMENT_3D ( 'NONE', #242, #156, #65 ) ;
#289 = SHAPE_DEFINITION_REPRESENTATION ( #75, #131 ) ;
ENDSEC;
END-ISO-10303-21;
